<?xml version="1.0" encoding="UTF-8" standalone="no"?>
<svg width="128px" height="128px" viewBox="0 0 128 128" version="1.1" xmlns="http://www.w3.org/2000/svg" xmlns:xlink="http://www.w3.org/1999/xlink">
    <!-- Generator: Sketch 39 (31667) - http://www.bohemiancoding.com/sketch -->
    <title>Slice 1</title>
    <desc>Created with Sketch.</desc>
    <defs></defs>
    <g id="Page-1" stroke="none" stroke-width="1" fill="none" fill-rule="evenodd">
        <g id="Icon">
            <rect id="Rectangle-21" x="0" y="0" width="128" height="128"></rect>
            <path d="M41.92,88 L84.16,88 C86.08,88 86.08,88 86.08,86.08 C86.08,84.16 86.08,84.16 84.16,84.16 L41.92,84.16 C40,84.16 40,84.16 40,86.08 C40,88 40,88 41.92,88 L41.92,88 Z M78.4,80.32 L79.36,80.32 C81.28,80.32 81.28,80.32 81.28,78.4 L81.28,59.2 C81.28,57.28 81.28,57.28 79.36,57.28 L78.4,57.28 C76.48,57.28 76.48,57.28 76.48,59.2 L76.48,78.4 C76.48,80.32 76.48,80.32 78.4,80.32 L78.4,80.32 Z M67.84,80.32 L68.8,80.32 C70.72,80.32 70.72,80.32 70.72,78.4 L70.72,59.2 C70.72,57.28 70.72,57.28 68.8,57.28 L67.84,57.28 C65.92,57.28 65.92,57.28 65.92,59.2 L65.92,78.4 C65.92,80.32 65.92,80.32 67.84,80.32 L67.84,80.32 Z M57.28,80.32 L58.24,80.32 C60.16,80.32 60.16,80.32 60.16,78.4 L60.16,59.2 C60.16,57.28 60.16,57.28 58.24,57.28 L57.28,57.28 C55.36,57.28 55.36,57.28 55.36,59.2 L55.36,78.4 C55.36,80.32 55.36,80.32 57.28,80.32 L57.28,80.32 Z M46.72,80.32 L47.68,80.32 C49.6,80.32 49.6,80.32 49.6,78.4 L49.6,59.2 C49.6,57.28 49.6,57.28 47.68,57.28 L46.72,57.28 C44.8,57.28 44.8,57.28 44.8,59.2 L44.8,78.4 C44.8,80.32 44.8,80.32 46.72,80.32 L46.72,80.32 Z M63.04,50.56 C61.456,50.56 60.16,49.264 60.16,47.68 C60.16,46.096 61.456,44.8 63.04,44.8 C64.624,44.8 65.92,46.096 65.92,47.68 C65.92,49.264 64.624,50.56 63.04,50.56 L63.04,50.56 Z M41.92,53.44 L84.16,53.44 C86.08,53.44 86.08,53.44 86.08,51.52 L86.08,50.56 C86.08,49.6 86.08,49.6 84.16,48.64 L63.04,40 L41.92,48.64 C40,49.6 40,49.6 40,50.56 L40,51.52 C40,53.44 40,53.44 41.92,53.44 L41.92,53.44 Z" id="Shape" fill="#FFFFFF"></path>
        </g>
    </g>
</svg>