<?xml version="1.0" encoding="UTF-8" standalone="no"?>
<svg width="128px" height="128px" viewBox="0 0 128 128" version="1.1" xmlns="http://www.w3.org/2000/svg" xmlns:xlink="http://www.w3.org/1999/xlink">
    <!-- Generator: Sketch 39 (31667) - http://www.bohemiancoding.com/sketch -->
    <title>Slice 1</title>
    <desc>Created with Sketch.</desc>
    <defs></defs>
    <g id="Page-1" stroke="none" stroke-width="1" fill="none" fill-rule="evenodd">
        <g id="Icon">
            <rect id="Rectangle-21" x="0" y="0" width="128" height="128"></rect>
            <path d="M82.9153407,50.5494505 L83.3626374,50.5494505 C84.2366593,50.5494505 84.9450549,49.8410549 84.9450549,48.967033 C84.9450549,48.093011 84.2366593,47.3846154 83.3626374,47.3846154 L66.1005714,47.3846154 L65.956044,41.5824176 C65.956044,40.7083956 65.2476484,40 64.3736264,40 C63.4996044,40 62.7912088,40.7083956 62.7912088,41.5824176 L62.6466813,47.3846154 L45.3846154,47.3846154 C44.5105934,47.3846154 43.8021978,48.093011 43.8021978,48.967033 C43.8021978,49.8410549 44.5105934,50.5494505 45.3846154,50.5494505 L45.8319121,50.5494505 L38,73.2307692 C38,73.2307692 38,78.5054945 47.4945055,78.5054945 C56.989011,78.5054945 56.989011,73.2307692 56.989011,73.2307692 L49.1570989,50.5494505 L62.5680879,50.5494505 L62.5401319,51.6655824 C61.7352088,52.2394725 61.2087912,53.1778462 61.2087912,54.2417582 C61.2087912,55.2487033 61.6808791,56.1443516 62.4140659,56.724044 L61.7642198,82.8117802 C51.7221978,83.4832527 51.7142857,88 51.7142857,88 L77.032967,88 C77.032967,88 77.0245275,83.4832527 66.983033,82.8112527 L66.3331868,56.7235165 C67.0658462,56.1438242 67.5384615,55.2487033 67.5384615,54.2417582 C67.5384615,53.1783736 67.012044,52.2394725 66.2076484,51.6655824 L66.1796923,50.5494505 L79.5901538,50.5494505 L71.7582418,73.2307692 C71.7582418,73.2307692 71.7582418,78.5054945 81.2527473,78.5054945 C90.7472527,78.5054945 90.7472527,73.2307692 90.7472527,73.2307692 L82.9153407,50.5494505 L82.9153407,50.5494505 Z M46.4395604,55.339956 L46.4395604,73.2307692 L40.3488352,73.2307692 L46.4395604,55.339956 L46.4395604,55.339956 Z M48.5494505,73.2307692 L48.5494505,55.339956 L54.6401758,73.2307692 L48.5494505,73.2307692 L48.5494505,73.2307692 Z M82.3076923,55.339956 L88.3984176,73.2307692 L82.3076923,73.2307692 L82.3076923,55.339956 L82.3076923,55.339956 Z M80.1978022,55.339956 L80.1978022,73.2307692 L74.1070769,73.2307692 L80.1978022,55.339956 L80.1978022,55.339956 Z" id="Shape" fill="#FFFFFF"></path>
        </g>
    </g>
</svg>