<?xml version="1.0" encoding="UTF-8" standalone="no"?>
<svg width="128px" height="128px" viewBox="0 0 128 128" version="1.1" xmlns="http://www.w3.org/2000/svg" xmlns:xlink="http://www.w3.org/1999/xlink">
    <!-- Generator: Sketch 39 (31667) - http://www.bohemiancoding.com/sketch -->
    <title>Slice 1</title>
    <desc>Created with Sketch.</desc>
    <defs></defs>
    <g id="Page-1" stroke="none" stroke-width="1" fill="none" fill-rule="evenodd">
        <g id="Icon">
            <rect id="Rectangle-21" x="0" y="0" width="128" height="128"></rect>
            <path d="M60.7226836,73.7419912 C60.7226836,73.7419912 57.3353468,74.6888146 54.6845001,74.2325531 C52.1973897,73.8041204 50.0202783,71.9091792 49.759465,71.674253 L50.1523029,80.8260166 L50.0565203,80.8298997 L47.4140869,80.9438033 L47.3189516,80.9476863 L46.9261137,71.7959228 C46.6847158,72.0522058 44.6797541,74.1270629 42.2372991,74.7677705 C39.6362852,75.4492504 36.1797001,74.7955992 36.1797001,74.7955992 C36.1797001,74.7955992 37.0022651,70.6180563 39.9702297,69.8912739 C42.9381944,69.1631971 44.2183152,69.0227591 44.2183152,69.0227591 C44.2183152,69.0227591 38.2759141,68.3354546 36.2651278,65.4218531 C34.2543415,62.5082515 34.4355517,61.9859778 34,60.2049401 C34,60.2049401 38.8253694,58.1967425 41.6334807,60.2191781 C44.4415921,62.2409665 45.4570165,63.913278 45.4570165,63.913278 C45.4570165,63.913278 43.2087153,59.4665085 43.2365441,56.1225326 C43.2663143,52.8212706 46.3798943,47.7370294 47.2833567,47.5732931 L47.2820623,47.5487002 C47.287887,47.5487002 47.298889,47.5590551 47.3040664,47.5590551 C47.3098911,47.5584079 47.3208931,47.5474059 47.3254234,47.5474059 L47.3267177,47.5719987 C48.2411822,47.6580736 51.7793118,52.4562615 52.0912523,55.7426383 C52.4057815,59.071729 50.5477295,63.6938842 50.5477295,63.6938842 C50.5477295,63.6938842 51.4149498,61.9426168 54.0399094,59.6871966 C56.6642218,57.4317765 61.6449142,59.017366 61.6449142,59.017366 C61.362744,60.8294682 61.5879625,61.3342681 59.8347535,64.4096645 C58.0808974,67.4844138 52.2180994,68.6791069 52.2180994,68.6791069 C52.2180994,68.6791069 53.5046921,68.7108187 56.5250782,69.1793766 C59.5448172,69.649876 60.7226836,73.7419912 60.7226836,73.7419912 L60.7226836,73.7419912 Z M77.4412685,79.7672312 C77.4412685,75.2266206 73.7484629,71.5344623 69.2084996,71.5344623 C64.6685363,71.5344623 60.9750836,75.2266206 60.9750836,79.7672312 C60.9750836,84.3065473 64.6685363,88 69.2084996,88 C73.7484629,88 77.4412685,84.3065473 77.4412685,79.7672312 L77.4412685,79.7672312 Z M76.2879948,79.7672312 C76.2879948,83.67037 73.1122856,86.8467264 69.2084996,86.8467264 C65.3040664,86.8467264 62.1283572,83.67037 62.1283572,79.7672312 C62.1283572,75.8640923 65.3040664,72.687736 69.2084996,72.687736 C73.1122856,72.687736 76.2879948,75.8640923 76.2879948,79.7672312 L76.2879948,79.7672312 Z M76.7927947,78.4741668 L76.4860317,77.3629598 L61.723223,81.4240104 L62.0293388,82.533923 L76.7927947,78.4741668 L76.7927947,78.4741668 Z M60.944019,52.9397045 L69.2492719,44.6357459 C69.3573509,44.5276669 69.4181857,44.3807572 69.4181857,44.2280229 C69.4181857,44.0752885 69.3573509,43.929026 69.2492719,43.8202999 L67.6688599,42.2411822 C67.4429943,42.0159638 67.0779851,42.0166109 66.8540611,42.2411822 L58.5488081,50.5444936 C58.4407292,50.6525725 58.3798943,50.7994823 58.3798943,50.9522166 C58.3798943,51.1049509 58.4407292,51.2518606 58.5488081,51.3592924 L60.1292201,52.9390573 C60.2418294,53.0516665 60.3880919,53.1079711 60.536296,53.1079711 C60.6845001,53.1079711 60.8307626,53.0523137 60.944019,52.9397045 L60.944019,52.9397045 Z M67.2617841,43.463704 L68.0267501,44.2280229 L60.536296,51.7171826 L59.77133,50.9522166 L67.2617841,43.463704 L67.2617841,43.463704 Z M58.873045,47.4127926 L63.7210657,42.5647719 C63.8291446,42.4566929 63.8906267,42.3097832 63.8906267,42.1570489 C63.8893323,42.0043145 63.8291446,41.8574048 63.7204185,41.749973 L62.1393593,40.1689138 C61.9141409,39.9436954 61.5497789,39.9436954 61.3245605,40.1689138 L56.4771869,45.0175817 C56.369108,45.1256607 56.3082731,45.2725704 56.3082731,45.4253047 C56.3082731,45.578039 56.369108,45.7243016 56.4771869,45.8323805 L58.057599,47.4127926 C58.1702082,47.5254018 58.3177651,47.5817064 58.465322,47.5817064 C58.6128789,47.5810592 58.7604358,47.5247546 58.873045,47.4127926 L58.873045,47.4127926 Z M61.7322835,41.3914357 L62.4985438,42.1570489 L58.4659692,46.1896236 L57.6997088,45.4246575 L61.7322835,41.3914357 L61.7322835,41.3914357 Z M69.9993528,56.4843059 L72.7932262,53.6910797 C73.0177974,53.4658613 73.0177974,53.1014993 72.7932262,52.8756337 C72.5673606,52.6504153 72.2029986,52.6504153 71.977133,52.8756337 L69.184554,55.6688599 C68.9586884,55.8940783 68.9586884,56.2590875 69.184554,56.4843059 C69.2971632,56.5962679 69.4440729,56.6532197 69.5916298,56.6532197 C69.7398339,56.6525725 69.8873908,56.5962679 69.9993528,56.4843059 L69.9993528,56.4843059 Z M68.4668321,54.9524323 L71.2600582,52.1592061 C71.4852767,51.9339877 71.4852767,51.5689785 71.2600582,51.3437601 C71.0348398,51.1185417 70.6704778,51.1185417 70.4446122,51.3437601 L67.6520332,54.1376335 C67.4261676,54.3628519 67.4261676,54.7278611 67.6520332,54.9524323 C67.7646424,55.0650415 67.9115522,55.1213461 68.0597562,55.1213461 C68.2073131,55.120699 68.35487,55.0643943 68.4668321,54.9524323 L68.4668321,54.9524323 Z M66.9356057,53.4199116 L69.729479,50.6266854 C69.9546974,50.4014669 69.9546974,50.037105 69.729479,49.8118865 C69.5036134,49.5866681 69.1392514,49.5866681 68.9146802,49.8118865 L66.1201596,52.6051127 C65.8949412,52.8303311 65.8949412,53.1953403 66.1201596,53.4199116 C66.233416,53.5325208 66.3796786,53.5888254 66.5278826,53.5888254 C66.6760867,53.5888254 66.8223493,53.5325208 66.9356057,53.4199116 L66.9356057,53.4199116 Z M65.4037321,51.8886851 L68.1969583,49.0948118 C68.4221767,48.8695934 68.4221767,48.5045842 68.1969583,48.2800129 C67.9717398,48.0547945 67.6073778,48.0547945 67.3821594,48.2800129 L64.5889332,51.0738863 C64.3630676,51.2991047 64.3630676,51.6634667 64.5889332,51.8886851 C64.7015424,52.0012944 64.8484522,52.057599 64.9960091,52.057599 C65.1442131,52.0569518 65.2911229,52.0006472 65.4037321,51.8886851 L65.4037321,51.8886851 Z M81.328875,64.9630029 C83.7506202,62.5412577 83.4982203,60.4845216 83.4859238,60.3984468 L83.4587423,60.2068817 L67.7536404,44.5017797 L60.8107,51.4440729 L76.3792471,67.0139144 L76.5280984,67.1556466 L76.7267824,67.1795923 C76.7267824,67.1795923 76.790206,67.1873584 76.9079927,67.1873584 C77.4237946,67.1867113 79.2663143,67.0262108 81.328875,64.9630029 L81.328875,64.9630029 Z M67.7536404,46.1313774 L82.3481825,60.7252724 C82.3345917,61.1912415 82.1391436,62.524431 80.5147233,64.1482041 C78.9064826,65.7557976 77.5493474,66.0010786 77.0257793,66.0302017 L62.4409449,51.4440729 L67.7536404,46.1313774 L67.7536404,46.1313774 Z M69.2324453,59.0516665 L76.7869701,66.604897 C76.7869701,66.604897 78.6741452,66.8022867 80.9224463,64.5552799 C83.1694531,62.3082731 82.9157588,60.4767555 82.9157588,60.4767555 L75.3605868,52.923525 L69.2324453,59.0516665 L69.2324453,59.0516665 Z M62.7257038,47.9984899 L64.3061158,46.4167835 C64.5319814,46.1915651 64.5319814,45.8265559 64.3061158,45.6019847 L62.0862906,43.3828066 C61.8694855,43.1660015 61.4876497,43.1666487 61.2708446,43.3828066 L59.6904325,44.964513 C59.4652141,45.1903786 59.4652141,45.5553878 59.6904325,45.779959 L61.9102578,47.9984899 C62.022867,48.1104519 62.1704239,48.1667566 62.318628,48.1667566 C62.4655377,48.1667566 62.6130946,48.1104519 62.7257038,47.9984899 L62.7257038,47.9984899 Z M61.6792148,44.6053284 L63.083594,46.0090605 L62.3173336,46.7753209 L60.9129544,45.3715888 L61.6792148,44.6053284 L61.6792148,44.6053284 Z M82.1507928,69.6311078 C82.2103333,69.6220472 83.6295977,69.4324237 84.6857944,68.3762269 C85.7406968,67.3219717 85.9393809,65.9137094 85.9464998,65.8535217 C85.9704455,65.6768418 85.9089634,65.4969259 85.7827635,65.3707259 L82.3650092,61.9523245 L81.5502103,62.7677705 L84.7466293,65.9648366 C84.6501995,66.3350232 84.4094488,67.0242692 83.8703484,67.5627225 C83.3306008,68.1024701 82.6374717,68.3386905 82.2659907,68.4338259 L79.0760436,65.2432316 L78.2612447,66.0573832 L81.6699385,69.4680186 C81.7786647,69.5767447 81.9262216,69.6362852 82.0776615,69.6362852 C82.1022543,69.6349908 82.1262,69.6336965 82.1507928,69.6311078 L82.1507928,69.6311078 Z M91.9445583,75.635638 C92.1697767,75.4104196 92.1697767,75.0454104 91.9445583,74.820192 L84.6857944,67.5620753 C84.4599288,67.3368569 84.0955668,67.3368569 83.8703484,67.5620753 C83.64513,67.7872937 83.64513,68.1510085 83.8703484,68.3762269 L91.1297595,75.635638 C91.2417215,75.7482472 91.3886312,75.805199 91.5368353,75.805199 C91.6850394,75.805199 91.8319491,75.7476 91.9445583,75.635638 L91.9445583,75.635638 Z" id="Shape" fill="#FFFFFF"></path>
        </g>
    </g>
</svg>