<?xml version="1.0" encoding="UTF-8" standalone="no"?>
<svg width="128px" height="128px" viewBox="0 0 128 128" version="1.1" xmlns="http://www.w3.org/2000/svg" xmlns:xlink="http://www.w3.org/1999/xlink">
    <!-- Generator: Sketch 39 (31667) - http://www.bohemiancoding.com/sketch -->
    <title>Slice 1</title>
    <desc>Created with Sketch.</desc>
    <defs></defs>
    <g id="Page-1" stroke="none" stroke-width="1" fill="none" fill-rule="evenodd">
        <g id="Icon">
            <rect id="Rectangle-21" x="0" y="0" width="128" height="128"></rect>
            <g id="Shape" transform="translate(36.000000, 40.000000)" fill="#FFFFFF">
                <g id="Group" transform="translate(0.000000, 22.400000)">
                    <path d="M21.1413333,5.06986667 L20.0213333,5.06986667 L20.0213333,7.5968 L21.1424,7.5968 C21.8389333,7.5968 22.4064,7.0304 22.4064,6.33173333 C22.4053333,5.6352 21.8389333,5.06986667 21.1413333,5.06986667 L21.1413333,5.06986667 Z" id="Shape"></path>
                    <path d="M22.4053333,12.5269333 C22.4053333,11.8549333 21.8773333,11.3088 21.2149333,11.2693333 C21.8773333,11.2298667 22.4053333,10.6848 22.4053333,10.0117333 C22.4053333,9.3152 21.8378667,8.74773333 21.1413333,8.74773333 L20.0213333,8.74773333 L20.0074667,16.3061333 L21.1285333,16.3061333 C21.8250667,16.3061333 22.3925333,15.7386667 22.3925333,15.0410667 C22.3925333,14.3690667 21.8624,13.8208 21.1989333,13.7834667 C21.8677333,13.7557333 22.4053333,13.2042667 22.4053333,12.5269333 L22.4053333,12.5269333 Z" id="Shape"></path>
                    <path d="M26.9653333,0.0554666667 L10.1301333,0.0554666667 L10.1301333,1.68 L9.5232,1.68 C8.6688,1.68 7.97226667,2.3744 7.97226667,3.22986667 L7.97226667,16.6794667 C7.97226667,17.5338667 8.6688,18.2282667 9.5232,18.2282667 L17.4762667,18.2282667 C18.3306667,18.2282667 19.0272,17.5338667 19.0272,16.6794667 L19.0272,3.22986667 C19.0272,2.44693333 18.4394667,1.80266667 17.6842667,1.70026667 L26.9664,1.70026667 L26.9664,0.0554666667 L26.9653333,0.0554666667 Z M11.7749333,11.3194667 C11.2384,11.3194667 10.8042667,10.8832 10.8042667,10.3477333 C10.8042667,9.8112 11.2384,9.37706667 11.7749333,9.37706667 C12.3114667,9.37706667 12.7466667,9.8112 12.7466667,10.3477333 C12.7466667,10.8832 12.3114667,11.3194667 11.7749333,11.3194667 L11.7749333,11.3194667 Z M15.3717333,11.3194667 C14.8352,11.3194667 14.3989333,10.8832 14.3989333,10.3477333 C14.3989333,9.8112 14.8352,9.37706667 15.3717333,9.37706667 C15.9082667,9.37706667 16.3434667,9.8112 16.3434667,10.3477333 C16.3424,10.8832 15.9082667,11.3194667 15.3717333,11.3194667 L15.3717333,11.3194667 Z M16.8330667,7.55093333 L10.1408,7.55093333 L10.1408,4.304 L16.8330667,4.304 L16.8330667,7.55093333 L16.8330667,7.55093333 Z" id="Shape"></path>
                    <path d="M8.80426667,19.3130667 C8.53973333,19.2842667 7.9584,19.1776 7.53706667,18.784 C7.056,18.336 6.95893333,17.7568 6.9376,17.5306667 L6.9376,7.904 C6.9376,7.07733333 6.26666667,6.40533333 5.43893333,6.40533333 C4.6272,6.40533333 3.9712,7.0496 3.9456,7.85493333 L3.9456,15.5370667 C3.94453333,15.5424 3.94346667,15.5797333 3.94026667,15.6394667 L3.94026667,16.4224 C3.96266667,17.1061333 4.05013333,18.1152 4.3296,19.1904 C4.8096,21.0314667 6.31893333,22.1653333 6.33386667,22.1770667 C6.49386667,22.2976 6.58666667,22.7168 6.38933333,22.8874667 C6.19093333,23.1978667 5.7472,23.0197333 5.6832,22.9706667 C5.62133333,22.928 4.38826667,22.0021333 3.696,20.4128 L0,24.96 L10.4938667,24.96 C10.4938667,24.96 12.6592,24.4266667 14.5696,22.9856 C16.2549333,21.7130667 17.2842667,19.8037333 17.4538667,19.3130667 L8.80426667,19.3130667 L8.80426667,19.3130667 L8.80426667,19.3130667 Z" id="Shape"></path>
                </g>
                <g id="Group" transform="translate(18.133333, 0.000000)">
                    <path d="M7.68853333,47.3408 L35.4378667,47.3408 C35.3290667,36.6741333 30.8512,34.4437333 29.8186667,30.8298667 C28.5952,26.5504 29.696,23.5370667 29.696,23.5370667 C32.4938667,21.3546667 34.304,17.0421333 34.3189333,13.2181333 C34.32,12.7989333 34.0416,1.1392 22.3221333,1.1392 C16.8832,1.1392 11.8666667,5.22453333 10.8256,9.72266667 C10.5930667,10.7232 10.3328,13.3354667 10.3328,13.3354667 L9.57013333,14.9376 L7.0624,19.7216 C7.01333333,19.8336 6.98773333,19.9637333 6.98773333,20.0970667 C6.98666667,20.4992 7.23093333,20.8448 7.5808,20.9909333 C7.70026667,21.0432 7.83253333,21.0741333 7.9712,21.0741333 L10.3104,21.0741333 L10.3008,24.3328 C10.2869333,27.9402667 12.3968,29.0698667 15.0090667,29.0784 L16.6112,29.0858667 L16.5994667,32.352 C12.8128,35.2256 8.96533333,40.9781333 7.68853333,47.3408 L7.68853333,47.3408 Z M14.1141333,14.7274667 C13.5701333,14.7274667 13.1285333,14.2858667 13.1285333,13.7418667 C13.1285333,13.1968 13.5701333,12.7562667 14.1141333,12.7562667 C14.6592,12.7562667 15.1018667,13.1978667 15.1018667,13.7418667 C15.1018667,14.2858667 14.6592,14.7274667 14.1141333,14.7274667 L14.1141333,14.7274667 Z" id="Shape"></path>
                    <ellipse id="Oval" cx="1.54346667" cy="9.33333333" rx="1.02933333" ry="1.02933333"></ellipse>
                    <ellipse id="Oval" cx="5.47733333" cy="8.16533333" rx="1.02933333" ry="1.02933333"></ellipse>
                    <circle id="Oval" cx="4.24213333" cy="3.98933333" r="1.02933333"></circle>
                    <ellipse id="Oval" cx="7.9552" cy="1.18613333" rx="1.0304" ry="1.0304"></ellipse>
                    <circle id="Oval" cx="9.25333333" cy="5.2992" r="1.0304"></circle>
                    <circle id="Oval" cx="6.22293333" cy="12.2261333" r="1.0304"></circle>
                </g>
            </g>
        </g>
    </g>
</svg>