<?xml version="1.0" encoding="UTF-8" standalone="no"?>
<svg width="269px" height="240px" viewBox="0 0 269 240" version="1.1" xmlns="http://www.w3.org/2000/svg" xmlns:xlink="http://www.w3.org/1999/xlink">
    <!-- Generator: Sketch 39 (31667) - http://www.bohemiancoding.com/sketch -->
    <title>Slice 1</title>
    <desc>Created with Sketch.</desc>
    <defs></defs>
    <g id="Page-1" stroke="none" stroke-width="1" fill="none" fill-rule="evenodd">
        <g id="Shape" fill="#FFFFFF">
            <g id="Group" transform="translate(0.000000, 107.520000)">
                <path d="M101.4784,24.33536 L96.1024,24.33536 L96.1024,36.46464 L101.48352,36.46464 C104.82688,36.46464 107.55072,33.74592 107.55072,30.39232 C107.5456,27.04896 104.82688,24.33536 101.4784,24.33536 L101.4784,24.33536 Z" id="Shape"></path>
                <path d="M107.5456,60.12928 C107.5456,56.90368 105.0112,54.28224 101.83168,54.0928 C105.0112,53.90336 107.5456,51.28704 107.5456,48.05632 C107.5456,44.71296 104.82176,41.98912 101.4784,41.98912 L96.1024,41.98912 L96.03584,78.26944 L101.41696,78.26944 C104.76032,78.26944 107.48416,75.5456 107.48416,72.19712 C107.48416,68.97152 104.93952,66.33984 101.75488,66.16064 C104.96512,66.02752 107.5456,63.38048 107.5456,60.12928 L107.5456,60.12928 Z" id="Shape"></path>
                <path d="M129.4336,0.26624 L48.62464,0.26624 L48.62464,8.064 L45.71136,8.064 C41.61024,8.064 38.26688,11.39712 38.26688,15.50336 L38.26688,80.06144 C38.26688,84.16256 41.61024,87.49568 45.71136,87.49568 L83.88608,87.49568 C87.9872,87.49568 91.33056,84.16256 91.33056,80.06144 L91.33056,15.50336 C91.33056,11.74528 88.50944,8.6528 84.88448,8.16128 L129.43872,8.16128 L129.43872,0.26624 L129.4336,0.26624 Z M56.51968,54.33344 C53.94432,54.33344 51.86048,52.23936 51.86048,49.66912 C51.86048,47.09376 53.94432,45.00992 56.51968,45.00992 C59.09504,45.00992 61.184,47.09376 61.184,49.66912 C61.184,52.23936 59.09504,54.33344 56.51968,54.33344 L56.51968,54.33344 Z M73.78432,54.33344 C71.20896,54.33344 69.11488,52.23936 69.11488,49.66912 C69.11488,47.09376 71.20896,45.00992 73.78432,45.00992 C76.35968,45.00992 78.44864,47.09376 78.44864,49.66912 C78.44352,52.23936 76.35968,54.33344 73.78432,54.33344 L73.78432,54.33344 Z M80.79872,36.24448 L48.67584,36.24448 L48.67584,20.6592 L80.79872,20.6592 L80.79872,36.24448 L80.79872,36.24448 Z" id="Shape"></path>
                <path d="M42.26048,92.70272 C40.99072,92.56448 38.20032,92.05248 36.17792,90.1632 C33.8688,88.0128 33.40288,85.23264 33.30048,84.1472 L33.30048,37.9392 C33.30048,33.9712 30.08,30.7456 26.10688,30.7456 C22.21056,30.7456 19.06176,33.83808 18.93888,37.70368 L18.93888,74.57792 C18.93376,74.60352 18.92864,74.78272 18.91328,75.06944 L18.91328,78.82752 C19.0208,82.10944 19.44064,86.95296 20.78208,92.11392 C23.08608,100.95104 30.33088,106.3936 30.40256,106.44992 C31.17056,107.02848 31.616,109.04064 30.6688,109.85984 C29.71648,111.34976 27.58656,110.49472 27.27936,110.2592 C26.9824,110.0544 21.06368,105.61024 17.7408,97.98144 L0,119.808 L50.37056,119.808 C50.37056,119.808 60.76416,117.248 69.93408,110.33088 C78.02368,104.22272 82.96448,95.05792 83.77856,92.70272 L42.26048,92.70272 L42.26048,92.70272 L42.26048,92.70272 Z" id="Shape"></path>
            </g>
            <g id="Group" transform="translate(87.040000, 0.000000)">
                <path d="M36.90496,227.23584 L170.10176,227.23584 C169.57952,176.03584 148.08576,165.32992 143.1296,147.98336 C137.25696,127.44192 142.5408,112.97792 142.5408,112.97792 C155.97056,102.5024 164.6592,81.80224 164.73088,63.44704 C164.736,61.43488 163.39968,5.46816 107.14624,5.46816 C81.03936,5.46816 56.96,25.07776 51.96288,46.6688 C50.84672,51.47136 49.59744,64.01024 49.59744,64.01024 L45.93664,71.70048 L33.89952,94.66368 C33.664,95.20128 33.54112,95.82592 33.54112,96.46592 C33.536,98.39616 34.70848,100.05504 36.38784,100.75648 C36.96128,101.00736 37.59616,101.15584 38.26176,101.15584 L49.48992,101.15584 L49.44384,116.79744 C49.37728,134.11328 59.50464,139.53536 72.04352,139.57632 L79.73376,139.61216 L79.67744,155.2896 C61.50144,169.08288 43.0336,196.69504 36.90496,227.23584 L36.90496,227.23584 Z M67.74784,70.69184 C65.13664,70.69184 63.01696,68.57216 63.01696,65.96096 C63.01696,63.34464 65.13664,61.23008 67.74784,61.23008 C70.36416,61.23008 72.48896,63.34976 72.48896,65.96096 C72.48896,68.57216 70.36416,70.69184 67.74784,70.69184 L67.74784,70.69184 Z" id="Shape"></path>
                <ellipse id="Oval" cx="7.40864" cy="44.8" rx="4.9408" ry="4.9408"></ellipse>
                <ellipse id="Oval" cx="26.2912" cy="39.1936" rx="4.9408" ry="4.9408"></ellipse>
                <circle id="Oval" cx="20.36224" cy="19.1488" r="4.9408"></circle>
                <ellipse id="Oval" cx="38.18496" cy="5.69344" rx="4.94592" ry="4.94592"></ellipse>
                <ellipse id="Oval" cx="44.416" cy="25.43616" rx="4.94592" ry="4.94592"></ellipse>
                <ellipse id="Oval" cx="29.87008" cy="58.68544" rx="4.94592" ry="4.94592"></ellipse>
            </g>
        </g>
    </g>
</svg>