<?xml version="1.0" encoding="UTF-8" standalone="no"?>
<svg width="128px" height="128px" viewBox="0 0 128 128" version="1.1" xmlns="http://www.w3.org/2000/svg" xmlns:xlink="http://www.w3.org/1999/xlink">
    <!-- Generator: Sketch 39 (31667) - http://www.bohemiancoding.com/sketch -->
    <title>Slice 1</title>
    <desc>Created with Sketch.</desc>
    <defs></defs>
    <g id="Page-1" stroke="none" stroke-width="1" fill="none" fill-rule="evenodd">
        <g id="Icon">
            <rect id="Rectangle-21" x="0" y="0" width="128" height="128"></rect>
            <g id="Shape" transform="translate(42.000000, 40.000000)" fill="#FFFFFF">
                <path d="M36.9517419,27.7259355 C37.1334194,27.7259355 37.2805161,27.5788387 37.2805161,27.3971613 C37.2805161,27.216 37.1334194,27.0689032 36.9517419,27.0689032 C36.7705806,27.0689032 36.0567742,27.216 36.0567742,27.3971613 C36.0562581,27.5788387 36.7705806,27.7259355 36.9517419,27.7259355 L36.9517419,27.7259355 Z"></path>
                <path d="M44.9677419,7.5236129 C44.5305806,8.10683871 43.1700645,9.46787097 43.1700645,9.46787097 C43.1700645,9.46787097 43.1700645,9.46787097 43.6077419,8.64154839 C44.0449032,7.81522581 44.288,6.55225806 44.3850323,5.87148387 C44.4820645,5.19122581 44.4340645,5.09419355 44.3850323,4.07380645 C44.3365161,3.05341935 43.7532903,3.5876129 43.7532903,3.5876129 L43.1700645,5.19122581 C43.1700645,5.19122581 42.7814194,5.92 42.6611613,6.06554839 C42.5414194,6.2116129 42.0526452,6.84335484 42.0526452,6.45419355 C42.0526452,6.06503226 42.3927742,5.14219355 42.6353548,2.66374194 C42.8784516,0.185290323 41.3233548,0.525419355 41.3233548,0.817032258 C41.3233548,1.10864516 41.1287742,1.93496774 40.0603871,5.33625806 C38.9914839,8.73806452 35.3950968,12.8686452 33.3052903,14.8609032 C31.216,16.8531613 28.4459355,21.2268387 28.2513548,22.0531613 C28.0567742,22.8794839 27.668129,25.3574194 27.668129,25.3574194 L27.668129,26.864 C27.668129,26.864 26.4051613,24.5310968 25.5298065,22.7819355 C24.6554839,21.0322581 23.44,17.6314839 21.8849032,16.5620645 C20.3298065,15.4926452 17.8033548,13.3058065 13.8668387,10.3416774 C9.93083871,7.37754839 4.63380645,0.380387097 4.63380645,0.380387097 C4.4196129,0.295225806 4.34219355,-0.0175483871 4.05058065,0.733935484 C3.75896774,1.48593548 4.36954839,3.94580645 4.69729032,4.95741935 C5.02554839,5.96851613 6.10941935,7.56335484 6.10941935,7.56335484 C6.10941935,7.56335484 5.94580645,7.34916129 5.53548387,7.06683871 C5.12516129,6.78451613 3.50812903,5.03019355 2.73806452,4.16 C1.96851613,3.28980645 1.71819355,2.43303226 1.35845161,3.61290323 C0.998709677,4.79277419 1.67741935,6.59716129 2.18735484,7.55819355 C2.69729032,8.51922581 4.46503226,10.2461935 4.46503226,10.2461935 C4.46503226,10.2461935 3.25316129,9.45341935 3.19845161,9.408 C3.14374194,9.36258065 2.19612903,8.50116129 1.48077419,7.76309677 C0.765419355,7.02503226 0.496516129,7.15716129 0.423741935,7.7723871 C0.350967742,8.38709677 0.87483871,9.43535484 1.14374194,10.1233548 C1.41264516,10.8113548 4.096,13.6769032 4.096,13.6769032 L3.78167742,13.4854194 C3.78167742,13.4854194 3.31251613,13.2939355 2.67458065,12.8067097 C2.03664516,12.3194839 1.56283871,12.3556129 1.51741935,12.6425806 C1.472,12.9295484 1.30787097,13.0436129 2.16412903,14.5378065 C3.02090323,16.032 4.03664516,16.5331613 4.19148387,16.6606452 C4.34632258,16.788129 4.89290323,17.1525161 4.79277419,17.1938065 C4.69264516,17.2345806 4.61058065,17.344 4.58322581,17.5674839 C4.55587097,17.7909677 4.83406452,18.2647742 5.92258065,19.2030968 C7.0116129,20.1414194 8.10941935,20.2095484 8.06864516,20.9300645 C8.02735484,21.6500645 9.18451613,22.2740645 9.76309677,22.6245161 C10.3416774,22.9749677 10.9295484,22.9796129 10.9202581,23.1210323 C10.9109677,23.2624516 10.6425806,23.0028387 10.7974194,23.6175484 C10.9522581,24.2327742 11.7496774,24.6472258 12.1455484,24.9249032 C12.5424516,25.2030968 13.8224516,25.1437419 13.5215484,25.7176774 C13.2211613,26.2916129 13.7538065,26.7473548 14.6012903,27.7223226 C15.4487742,28.6972903 18.5692903,31.2670968 20.4603871,32.4376774 C22.3509677,33.6087742 21.7997419,33.8363871 21.7630968,33.8869677 C21.7269677,33.9370323 20.656,34.4975484 20.3597419,34.6477419 C20.064,34.7979355 18.3189677,35.076129 15.8766452,35.3950968 C13.4348387,35.7135484 11.3754839,36.2833548 10.3550968,36.6611613 C9.33470968,37.0389677 9.08851613,37.3264516 9.14322581,37.6500645 C9.19741935,37.9731613 10.4686452,38.324129 10.5553548,38.3473548 C10.6420645,38.3700645 11.3527742,38.4428387 10.9837419,38.9207742 C10.6141935,39.3997419 10.6095484,39.8136774 10.8696774,40.0056774 C11.1292903,40.1966452 12.8557419,40.256 13.0379355,40.2652903 C13.220129,40.2745806 12.8696774,40.4660645 12.6962581,40.8531613 C12.5233548,41.2402581 12.5140645,41.2449032 13.2108387,41.4771613 C13.908129,41.7094194 15.4663226,41.5230968 15.4797419,41.5230968 C15.4931613,41.5230968 15.547871,41.5592258 15.4797419,41.7094194 C15.4110968,41.8596129 15.1468387,42.3974194 15.1695484,42.7752258 C15.1922581,43.1530323 16.2353548,43.1489032 16.8005161,42.8892903 C17.3656774,42.6296774 17.2696774,42.7070968 17.1922581,43.4590968 C17.1153548,44.2105806 18.0763871,43.8100645 18.4407742,43.6825806 C18.8051613,43.5550968 19.1649032,42.9584516 19.3063226,44.0830968 C19.4472258,45.2087742 20.3313548,44.3246452 20.5181935,43.8735484 C20.7050323,43.4229677 21.2387097,42.6529032 21.6846452,41.8689032 C22.1310968,41.0854194 23.3336774,40.0516129 23.3336774,40.0516129 C23.3336774,40.0516129 23.4477419,40.1517419 23.5984516,40.612129 C23.7486452,41.0725161 23.744,41.268129 23.8353548,42.1104516 C23.9261935,42.9538065 24.6095484,42.251871 24.6095484,42.251871 L24.9512258,42.1011613 C24.9512258,42.1011613 25.0059355,43.3176774 25.252129,43.8828387 C25.4983226,44.4474839 25.8807742,44.4609032 26.0536774,44.1925161 C26.2270968,43.9236129 26.3184516,44.0650323 26.3091613,44.6162581 C26.2993548,45.1669677 25.3109677,45.1767742 25.0947097,45.2810323 C24.8779355,45.3858065 24.5909677,45.4498065 24.2812903,46.2286452 C23.9716129,47.008 24.7870968,46.8892903 24.9192258,46.7122581 C25.0513548,46.5341935 24.9780645,46.5842581 25.2196129,46.6301935 C25.4611613,46.6756129 25.9396129,46.6255484 26.3633548,46.3752258 C26.7870968,46.1249032 26.8464516,46.2152258 27.1334194,46.2477419 C27.4203871,46.2797419 27.9396129,46.612129 27.9396129,46.612129 C27.9396129,46.612129 28.1950968,46.9305806 28.3587097,47.4090323 C28.5223226,47.888 29.0193548,47.595871 29.0828387,47.4730323 C29.1468387,47.3501935 29.1375484,47.300129 29.1468387,47.204129 C29.156129,47.108129 29.1788387,46.9899355 29.2562581,46.9305806 C29.3331613,46.8717419 29.3243871,47.0580645 29.4745806,47.1814194 C29.6252903,47.3042581 29.5339355,47.3181935 29.7620645,47.3362581 C29.9901935,47.3543226 30.1950968,46.8397419 30.1950968,46.8397419 C30.1950968,46.8397419 30.2451613,46.8624516 30.3953548,46.9765161 C30.5460645,47.0905806 30.5780645,47.0353548 30.7690323,46.9765161 C30.9605161,46.9171613 30.971871,46.7896774 31.0683871,46.4495484 C31.1654194,46.1094194 30.6307097,45.5741935 30.1455484,45.380129 C29.7130323,45.2067097 29.0910968,44.8815484 28.9584516,44.811871 C29.0766452,44.8696774 29.5674839,45.0534194 30.2420645,44.5073548 C31.019871,43.8771613 31.8947097,44.4562581 32.2343226,44.5047742 C32.5744516,44.5532903 32.5744516,43.776 32.5744516,43.776 C32.5744516,43.776 32.8660645,43.8245161 33.1576774,43.776 C33.4492903,43.7269677 33.3522581,43.0957419 33.3522581,43.0957419 C33.3522581,43.0957419 33.3522581,43.0957419 33.8379355,43.0472258 C34.3230968,42.9981935 33.8864516,42.3184516 33.4978065,42.1243871 C33.1091613,41.9298065 32.9630968,41.7837419 31.7966452,42.1243871 C30.6301935,42.464 30.2905806,42.464 30.2905806,41.7352258 C30.2905806,41.0064516 29.9989677,39.5483871 29.5618065,38.3819355 C29.124129,37.216 30.6301935,35.4183226 31.1649032,34.9316129 C31.6996129,34.4459355 31.9427097,33.9597419 32.4283871,32.8908387 C32.9140645,31.8219355 33.4002581,32.016 34.0805161,31.3316129 C34.7607742,30.6472258 37.1901935,30.1202581 38.1625806,30.1202581 C39.1344516,30.1202581 38.7943226,30.8005161 39.2309677,31.1896774 C39.6686452,31.5788387 39.4255484,31.1406452 39.8141935,30.2172903 C40.2028387,29.2939355 39.4255484,28.128 39.1344516,27.8843871 C38.8428387,27.6412903 38.4541935,27.7873548 38.4541935,27.5447742 C38.4541935,27.3021935 38.0165161,26.523871 37.1907097,25.9891613 C36.3643871,25.4549677 33.6433548,26.0861935 33.4978065,26.0861935 C33.3785806,26.0861935 32.6792258,26.3122581 32.427871,26.3948387 L33.3042581,26.4237419 L33.1700645,26.8877419 L33.8430968,26.9770323 L33.2299355,27.867871 L34.0810323,27.867871 L33.7243871,28.6854194 L34.2647742,28.9352258 L34.1114839,29.4833548 L34.676129,29.7496774 L34.4263226,30.3060645 L35.0049032,30.4010323 L34.2472258,31.1912258 L34.3050323,30.6611613 L33.7243871,30.500129 L33.9096774,29.952 L33.4580645,29.7744516 L33.7806452,29.1292903 L33.0549677,28.8872258 L33.3775484,28.2905806 L32.8614194,28.0165161 L33.2,27.2743226 L32.5228387,27.2098065 L32.9424516,26.5517419 L32.427871,26.3953548 C32.3726452,26.4134194 32.3313548,26.4273548 32.3313548,26.4273548 C32.3313548,26.4273548 32.2828387,25.2123871 32.3313548,24.3375484 C32.3803871,23.4632258 32.4769032,22.5883871 32.72,21.908129 C32.9630968,21.227871 33.1576774,22.539871 33.1576774,22.539871 C33.1576774,22.539871 33.1576774,22.539871 33.9354839,21.7135484 C34.7132903,20.8872258 37.7744516,18.8464516 38.5517419,18.5063226 C39.3290323,18.1661935 38.891871,17.632 38.891871,17.632 C38.891871,17.632 39.3295484,17.7775484 40.2523871,17.4374194 C41.1757419,17.0972903 41.1757419,16.2709677 41.1757419,16.2709677 C41.1757419,16.2709677 40.3979355,16.1739355 40.7380645,16.0763871 C41.0781935,15.9793548 42.196129,15.6877419 42.5847742,15.396129 C42.9734194,15.1045161 43.3135484,14.6668387 43.7512258,13.9870968 C44.1883871,13.3068387 43.7512258,13.403871 43.7512258,13.403871 C43.7512258,13.403871 43.2165161,13.5009032 42.5847742,13.6227097 C41.9525161,13.744 41.9045161,13.6227097 41.9045161,13.6227097 C41.9045161,13.6227097 42.3421935,13.2098065 43.2165161,12.432 C44.0913548,11.6547097 44.8691613,10.5852903 45.2087742,9.90503226 C45.5489032,9.22477419 45.5003871,8.69006452 45.5489032,7.96129032 C45.6,7.232 45.4054194,6.9403871 44.9677419,7.5236129 L44.9677419,7.5236129 Z M36.9517419,26.939871 C37.2046452,26.939871 37.4095484,27.1442581 37.4095484,27.3971613 C37.4095484,27.6500645 37.2051613,27.8549677 36.9517419,27.8549677 C36.6993548,27.8549677 35.7501935,27.6505806 35.7501935,27.3971613 C35.7501935,27.1447742 36.6988387,26.939871 36.9517419,26.939871 L36.9517419,26.939871 Z"></path>
            </g>
        </g>
    </g>
</svg>