<?xml version="1.0" encoding="UTF-8" standalone="no"?>
<svg width="213px" height="241px" viewBox="0 0 213 241" version="1.1" xmlns="http://www.w3.org/2000/svg" xmlns:xlink="http://www.w3.org/1999/xlink">
    <!-- Generator: Sketch 39 (31667) - http://www.bohemiancoding.com/sketch -->
    <title>Slice 1</title>
    <desc>Created with Sketch.</desc>
    <defs></defs>
    <g id="Page-1" stroke="none" stroke-width="1" fill="none" fill-rule="evenodd">
        <g id="Icon">
            <g id="Shape" fill="#FFFFFF">
                <polygon points="51.1944 0 181.1136 0 211.2 30.4248 211.2 210 170.3808 210 171.1944 60 131.2056 19.9968 51.1944 19.7904"></polygon>
                <path d="M131.1024,31.2 L0,31.2 L0,240 L160.8,240 L160.8,60.4248 L131.1024,31.2 L131.1024,31.2 Z M110.4,79.2 L110.4,40.0032 L151.2,79.2 L110.4,79.2 L110.4,79.2 Z"></path>
            </g>
            <path d="M83.6996996,130.637656 C72.0085193,125.800274 72.0085193,124.095241 72.0085193,122.965845 C72.0085193,120.205474 75.7165053,119.794785 77.9264851,119.794785 C84.7617691,119.794785 88.9359884,122.179813 90.9406235,123.32604 L99.7216324,128.340152 L109.320654,103.000285 L103.027345,99.3108136 C98.8649076,96.871925 94.3759387,95.1904552 89.4476669,94.2361075 L89.4476669,80 L63.6617639,80 L63.6617639,95.8721322 C51.006137,100.536149 42.9286861,111.392485 42.9286861,124.610285 C42.9286861,145.370294 62.6485059,153.102698 70.9767466,156.369698 C81.1009115,160.473225 81.1009115,163.22518 81.1009115,164.702988 C81.1009115,168.25949 76.9519395,169.521855 73.3988037,169.521855 C68.1995443,169.521855 62.5996944,167.8589 58.4170594,165.068232 L49.2219949,158.936506 L40,184.687063 L45.3103475,188.482573 C49.7993164,191.688979 56.0471801,194.092522 62.7006836,195.290927 L62.7006836,210 L88.6246051,210 L88.6246051,193.727277 C101.85587,188.920193 110.318763,177.567326 110.318763,163.743591 C110.31708,143.796546 95.1013776,135.286524 83.6996996,130.637656 L83.6996996,130.637656 Z" id="Shape" fill="#DF2000"></path>
        </g>
    </g>
</svg>