<?xml version="1.0" encoding="UTF-8" standalone="no"?>
<svg width="128px" height="128px" viewBox="0 0 128 128" version="1.1" xmlns="http://www.w3.org/2000/svg" xmlns:xlink="http://www.w3.org/1999/xlink">
    <!-- Generator: Sketch 39 (31667) - http://www.bohemiancoding.com/sketch -->
    <title>Slice 1</title>
    <desc>Created with Sketch.</desc>
    <defs></defs>
    <g id="Page-1" stroke="none" stroke-width="1" fill="none" fill-rule="evenodd">
        <g id="Icon">
            <rect id="Rectangle-21" x="0" y="0" width="128" height="128"></rect>
            <g id="Shape" transform="translate(42.000000, 40.000000)" fill="#FFFFFF">
                <polygon points="10.23888 0 36.22272 0 42.24 6.08496 42.24 42 34.07616 42 34.23888 12 26.24112 3.99936 10.23888 3.95808"></polygon>
                <path d="M26.22048,6.24 L0,6.24 L0,48 L32.16,48 L32.16,12.08496 L26.22048,6.24 L26.22048,6.24 Z M22.08,15.84 L22.08,8.00064 L30.24,15.84 L22.08,15.84 L22.08,15.84 Z"></path>
            </g>
            <path d="M58.7399399,66.1275312 C56.4017039,65.1600549 56.4017039,64.8190481 56.4017039,64.593169 C56.4017039,64.0410948 57.1433011,63.958957 57.585297,63.958957 C58.9523538,63.958957 59.7871977,64.4359625 60.1881247,64.6652079 L61.9443265,65.6680305 L63.8641307,60.600057 L62.605469,59.8621627 C61.7729815,59.374385 60.8751877,59.038091 59.8895334,58.8472215 L59.8895334,56 L54.7323528,56 L54.7323528,59.1744264 C52.2012274,60.1072298 50.5857372,62.2784971 50.5857372,64.9220571 C50.5857372,69.0740587 54.5297012,70.6205396 56.1953493,71.2739396 C58.2201823,72.094645 58.2201823,72.645036 58.2201823,72.9405976 C58.2201823,73.6518981 57.3903879,73.904371 56.6797607,73.904371 C55.6399089,73.904371 54.5199389,73.57178 53.6834119,73.0136465 L51.844399,71.7873013 L50,76.9374126 L51.0620695,77.6965146 C51.9598633,78.3377958 53.209436,78.8185043 54.5401367,79.0581853 L54.5401367,82 L59.724921,82 L59.724921,78.7454555 C62.3711741,77.7840385 64.0637527,75.5134652 64.0637527,72.7487182 C64.063416,68.7593091 61.0202755,67.0573049 58.7399399,66.1275312 L58.7399399,66.1275312 Z" id="Shape" fill="#DF2000"></path>
        </g>
    </g>
</svg>