<?xml version="1.0" encoding="UTF-8" standalone="no"?>
<svg width="120px" height="128px" viewBox="0 0 120 128" version="1.1" xmlns="http://www.w3.org/2000/svg" xmlns:xlink="http://www.w3.org/1999/xlink">
    <!-- Generator: Sketch 39 (31667) - http://www.bohemiancoding.com/sketch -->
    <title>Slice 1</title>
    <desc>Created with Sketch.</desc>
    <defs></defs>
    <g id="Page-1" stroke="none" stroke-width="1" fill="none" fill-rule="evenodd">
        <path d="M32,0 C23.2,0 16,7.2 16,16 L16,108 C16,110.4 14.4,112 12,112 C9.6,112 8,110.4 8,108 L8,88 L0,88 L0,112.752 C0.8,120.752 7.2,128 16,128 L88,128 C96.8,128 104,120.8 104,112 L104,48 L24,48 L24,20 C24,17.6 25.6,16 28,16 C30.4,16 32,17.6 32,20 L32,40 L120,40 L120,16 C120,7.2 112.8,0 104,0 L32,0 L32,0 Z" id="Shape" fill="#DF2000"></path>
    </g>
</svg>