<?xml version="1.0" encoding="UTF-8" standalone="no"?>
<svg width="123px" height="128px" viewBox="0 0 123 128" version="1.1" xmlns="http://www.w3.org/2000/svg" xmlns:xlink="http://www.w3.org/1999/xlink">
    <!-- Generator: Sketch 39 (31667) - http://www.bohemiancoding.com/sketch -->
    <title>Slice 1</title>
    <desc>Created with Sketch.</desc>
    <defs></defs>
    <g id="Page-1" stroke="none" stroke-width="1" fill="none" fill-rule="evenodd">
        <path d="M5.12,128 L117.76,128 C122.88,128 122.88,128 122.88,122.88 C122.88,117.76 122.88,117.76 117.76,117.76 L5.12,117.76 C0,117.76 0,117.76 0,122.88 C0,128 0,128 5.12,128 L5.12,128 Z M102.4,107.52 L104.96,107.52 C110.08,107.52 110.08,107.52 110.08,102.4 L110.08,51.2 C110.08,46.08 110.08,46.08 104.96,46.08 L102.4,46.08 C97.28,46.08 97.28,46.08 97.28,51.2 L97.28,102.4 C97.28,107.52 97.28,107.52 102.4,107.52 L102.4,107.52 Z M74.24,107.52 L76.8,107.52 C81.92,107.52 81.92,107.52 81.92,102.4 L81.92,51.2 C81.92,46.08 81.92,46.08 76.8,46.08 L74.24,46.08 C69.12,46.08 69.12,46.08 69.12,51.2 L69.12,102.4 C69.12,107.52 69.12,107.52 74.24,107.52 L74.24,107.52 Z M46.08,107.52 L48.64,107.52 C53.76,107.52 53.76,107.52 53.76,102.4 L53.76,51.2 C53.76,46.08 53.76,46.08 48.64,46.08 L46.08,46.08 C40.96,46.08 40.96,46.08 40.96,51.2 L40.96,102.4 C40.96,107.52 40.96,107.52 46.08,107.52 L46.08,107.52 Z M17.92,107.52 L20.48,107.52 C25.6,107.52 25.6,107.52 25.6,102.4 L25.6,51.2 C25.6,46.08 25.6,46.08 20.48,46.08 L17.92,46.08 C12.8,46.08 12.8,46.08 12.8,51.2 L12.8,102.4 C12.8,107.52 12.8,107.52 17.92,107.52 L17.92,107.52 Z M61.44,28.16 C57.216,28.16 53.76,24.704 53.76,20.48 C53.76,16.256 57.216,12.8 61.44,12.8 C65.664,12.8 69.12,16.256 69.12,20.48 C69.12,24.704 65.664,28.16 61.44,28.16 L61.44,28.16 Z M5.12,35.84 L117.76,35.84 C122.88,35.84 122.88,35.84 122.88,30.72 L122.88,28.16 C122.88,25.6 122.88,25.6 117.76,23.04 L61.44,0 L5.12,23.04 C0,25.6 0,25.6 0,28.16 L0,30.72 C0,35.84 0,35.84 5.12,35.84 L5.12,35.84 Z" id="Shape" fill="#DF2000"></path>
    </g>
</svg>