<?xml version="1.0" encoding="UTF-8" standalone="no"?>
<svg width="128px" height="128px" viewBox="0 0 128 128" version="1.1" xmlns="http://www.w3.org/2000/svg" xmlns:xlink="http://www.w3.org/1999/xlink">
    <!-- Generator: Sketch 39 (31667) - http://www.bohemiancoding.com/sketch -->
    <title>Slice 1</title>
    <desc>Created with Sketch.</desc>
    <defs></defs>
    <g id="Page-1" stroke="none" stroke-width="1" fill="none" fill-rule="evenodd">
        <g id="Icon">
            <rect id="Rectangle-21" x="0" y="0" width="128" height="128"></rect>
            <path d="M68.1352737,58.6969807 C63.8185302,56.9108706 63.8185302,56.2813196 63.8185302,55.864312 C63.8185302,54.8450981 65.1876327,54.693459 66.0036253,54.693459 C68.5274224,54.693459 70.0686726,55.5740846 70.8088456,55.997307 L74.0510643,57.8486716 L77.5953182,48.4924129 L75.271635,47.1301466 C73.7347351,46.2296338 72.0772697,45.6087835 70.2576001,45.2564089 L70.2576001,40 L60.7366513,40 L60.7366513,45.8604796 C56.0638044,47.5825781 53.081361,51.5910715 53.081361,56.47149 C53.081361,64.1367238 60.3625252,66.9917655 63.437568,68.1980424 C67.1757212,69.7131907 67.1757212,70.7292972 67.1757212,71.2749495 C67.1757212,72.5881195 65.643793,73.0542234 64.331866,73.0542234 C62.4121394,73.0542234 60.3445026,72.4402092 58.800145,71.4098089 L55.4050443,69.1457869 L52,78.6536848 L53.9607437,80.0551038 C55.6182091,81.2390077 57.9251126,82.1264695 60.3817909,82.5689575 L60.3817909,88 L69.9537003,88 L69.9537003,81.9916101 C74.8390906,80.2166865 77.9638511,76.0248589 77.9638511,70.9207105 C77.9632296,63.5556476 72.345124,60.4134859 68.1352737,58.6969807 L68.1352737,58.6969807 Z" id="Shape" fill="#FFFFFF"></path>
        </g>
    </g>
</svg>