<?xml version="1.0" encoding="UTF-8" standalone="no"?>
<svg width="128px" height="128px" viewBox="0 0 128 128" version="1.1" xmlns="http://www.w3.org/2000/svg" xmlns:xlink="http://www.w3.org/1999/xlink">
    <!-- Generator: Sketch 39 (31667) - http://www.bohemiancoding.com/sketch -->
    <title>Slice 1</title>
    <desc>Created with Sketch.</desc>
    <defs></defs>
    <g id="Page-1" stroke="none" stroke-width="1" fill="none" fill-rule="evenodd">
        <g id="Icon">
            <rect id="Rectangle-21" x="0" y="0" width="128" height="128"></rect>
            <path d="M72.0981075,75.1833797 C72.6509127,74.8316263 73.1250455,74.519384 73.6016259,74.2060927 C73.8907909,74.0169292 74.159676,73.8365069 74.4089803,73.6816096 C74.5390521,73.5980419 74.6666764,73.5162226 74.793951,73.4351025 C74.4317079,72.43299 74.1187663,71.208147 73.8691123,69.7969376 C73.4568685,67.4850158 73.1649062,65.5388336 72.9334343,63.9646848 L72.8376288,63.3744664 C72.6470665,62.0713006 72.4327277,60.6772243 72.2666414,60.2219729 C72.0145398,59.4957386 71.9173356,58.6037675 71.8666356,57.8240359 C71.8155859,57.1985023 72.0016026,56.0645697 72.3981119,55.6383397 C72.5610513,55.4677079 72.7281866,55.4292458 72.8460205,55.4292458 C73.3138595,55.4292458 73.4928831,55.888693 73.9946386,58.5093606 C74.0771573,58.9387375 74.1673684,59.4279054 74.2079284,59.5422427 C74.4551348,60.251344 74.6219205,61.3471641 74.8729731,63.0108247 L74.8782179,63.0699165 L74.9726249,63.6643308 C75.2044465,65.2230947 75.4946605,67.1608852 75.8964146,69.4388904 C76.1065575,70.6385583 76.3680998,71.6686432 76.66216,72.5232011 C76.8674077,72.4571162 77.0604175,72.3969755 77.264966,72.3515203 L77.306575,72.3378837 L77.3303515,72.3347368 C77.5233614,72.2962747 77.7436443,72.2637568 77.9793121,72.2231967 L78.0233686,72.2109588 L78.0352569,72.2109588 C78.4478503,72.1627063 78.8719824,72.1375311 79.3331779,72.1375311 C80.495083,72.1375311 82.2017512,71.9210944 83.7867393,71.5857749 L83.8657614,71.5672431 L83.8874401,71.5647955 L83.9105173,71.5626976 L83.993036,71.559201 C86.2472647,71.3791285 87.4721077,70.3063856 87.950786,68.0553038 L89.094509,63.1685194 C88.9189819,62.1366861 88.6605865,61.0649922 88.3696732,60.2219729 C87.8116231,58.6048165 87.8032314,58.1555093 87.7787555,57.3362666 C87.7535803,56.5726191 87.7259575,55.5236527 87.2165096,52.8022844 C86.3276854,48.0543131 84.265068,46.1906496 83.0339311,45.076997 C82.8342779,44.8997217 82.6468626,44.7325864 82.4937135,44.5752415 C82.1671353,44.2514605 81.9118868,43.8273285 81.6402045,43.3783709 C80.8905433,42.1447865 79.9576626,40.6104984 76.993983,40.1160856 C76.5240461,40.0388118 76.0656478,40 75.6247323,40 C73.5774997,40 72.1592972,40.8339282 71.0180218,41.5045674 C70.3931875,41.8710063 69.8550678,42.1884934 69.3281371,42.3059777 C69.1686942,42.3405935 68.9998106,42.3577267 68.8141436,42.3577267 C68.1242734,42.3577267 67.3123734,42.1227582 66.3731989,41.8542228 L66.0151517,41.7503752 C65.0238786,41.4696018 63.8847011,41.1699471 62.7623071,41.1699471 C62.4168476,41.1699471 62.0836259,41.1989685 61.7706843,41.255263 C60.5353516,41.4811405 59.3696004,42.5871006 58.1377642,43.7584464 C56.6080217,45.2102158 55.0258308,46.7116362 52.9730037,46.9609406 C52.8104139,46.9815702 52.6331386,46.9966054 52.4481709,47.0140882 C50.8582876,47.1581462 48.6862279,47.3518554 47.125366,50.698058 C45.6127566,53.938315 43.9148298,54.8222439 41.9497662,55.8446364 C41.4256327,56.1163187 40.8847157,56.3967424 40.3081339,56.7397544 C37.5825697,58.3569108 37.0944507,59.9282624 35.9126153,63.7213246 C35.4783432,65.1248416 35.1077084,65.9426856 34.8115503,66.6066813 C34.2706333,67.8091464 34,68.4119524 34,71.0658372 C34,73.8893049 36.5056309,75.9592651 36.7052842,75.5253427 C36.7647256,75.3977185 36.8654264,75.308906 36.9885051,75.267297 C37.0367575,75.2494646 37.0871079,75.2449191 37.137808,75.2449191 C37.676627,75.2449191 38.4444703,76.5180145 39.4207083,79.0323868 C40.0102274,80.5579335 40.9116392,82.7264966 41.8665482,84.4499483 C43.1323009,85.6891272 43.9616836,86.0157054 44.7641428,86.3282973 L44.9106485,86.3873891 C44.9218374,86.3908856 46.0424831,86.8349481 47.8404114,86.8349481 C48.4823788,86.8349481 49.1393814,86.7838984 49.7946357,86.6671134 C51.5324233,86.3713049 52.3667011,85.6254899 52.7527208,85.0845729 C52.4600592,84.7894637 52.1915238,84.4604379 51.9624995,84.1079853 C51.1705299,82.9275485 50.7859089,81.6254316 50.4799604,80.5827591 C50.3687699,80.211425 50.2656216,79.8687627 50.1600256,79.5788983 C49.7995309,78.5778348 49.5449817,77.1666254 49.2743484,75.6798904 L49.2652574,75.6256938 L49.2474249,75.5218462 C48.985533,74.0819651 48.7169976,72.5878874 48.3963636,71.5057038 C48.1704862,70.7224756 47.9183846,70.2958959 47.8491528,70.2322586 L47.8351666,70.2231676 L47.8278238,70.211629 C46.7131223,69.047626 46.866621,65.4594618 47.2117309,64.6493102 C47.3414531,64.3496554 47.5498478,64.2961582 47.6613878,64.2961582 L47.6879617,64.2961582 L47.7099899,64.2975568 C48.497414,64.3912644 48.5914713,66.0860444 48.5914713,66.1084223 C48.5711913,67.0629817 48.8068591,68.3119509 49.2967264,68.7686009 C49.8568744,69.3504276 50.1376477,70.148691 50.3740148,70.9308702 C50.6397529,71.8298344 50.8488469,72.8669124 51.0187794,73.7644779 C51.0985009,74.1802182 51.1726278,74.6019027 51.2516499,75.0193913 C51.5345212,76.5844491 51.8037559,78.0638413 52.0988651,78.8774895 C52.2250907,79.2369353 52.3387287,79.6100176 52.4607585,80.0128207 C52.765658,81.0355629 53.0852431,82.0869768 53.6719649,82.9579685 C54.0905025,83.5625228 54.5534463,83.9999417 55.1163916,84.3275689 C56.2824925,84.251344 57.5730707,83.98141 58.9521118,83.5223124 C61.249348,82.7625111 62.4909745,81.7114468 63.0979764,81.042556 C61.7199843,79.1516193 60.8255656,77.0610294 60.5049316,74.9746354 C59.9594691,71.2959105 59.536386,69.9944929 59.0545608,68.4766386 C58.8982648,67.9948134 58.7398709,67.4853655 58.5632949,66.8787133 C58.2136395,65.682542 58.0363642,64.2143388 58.0356649,62.5405382 C58.0356649,61.7639534 58.3664389,59.909381 59.1797375,59.909381 L59.2115561,59.9100803 L59.2311368,59.9107796 C60.0881423,59.9943472 60.0982823,62.5129154 60.0982823,62.5412375 C60.0968837,63.3748161 60.1514299,64.9748394 60.5433937,66.3094742 C60.7017876,66.8584333 60.8570346,67.3388598 61.0038899,67.8091464 C61.5098413,69.3770014 61.9822258,70.8598901 62.5451711,74.6679876 C62.9189528,77.2306123 64.2840076,79.3131602 65.4123458,80.6449977 C65.9001151,80.6415012 66.4578155,80.5589825 67.0644677,80.3977913 C67.2448899,79.9187634 67.4746136,79.4572182 67.7508414,79.0190999 C68.7910663,77.3939014 70.4547269,76.2117164 72.0981075,75.1833797 L72.0981075,75.1833797 Z M75.6474599,79.0988214 C73.661417,79.0988214 72.7848308,80.2310057 71.8564956,82.3334839 C71.2337592,83.7478401 71.9348184,85.3964656 72.2662918,86.0503212 C72.5621003,86.0842378 72.9093081,86.1038185 73.2635091,86.1038185 C73.774006,86.1038185 78.3216247,86.0202509 78.6835181,83.0831452 C78.8558983,81.6481592 78.6607905,80.5991929 78.0835094,79.9523303 C77.5824531,79.3841402 76.765658,79.0988214 75.6474599,79.0988214 L75.6474599,79.0988214 Z M91.2658693,71.2466091 C90.3259954,70.304987 89.7847288,69.30742 89.477032,68.3895744 C88.958493,70.8280715 87.4777022,72.857122 84.1126182,73.1211119 L84.1126182,73.1211119 C81.3013884,73.33615 79.4510118,73.564475 78.2314136,73.7679745 C78.0202217,73.7931497 77.8153236,73.8309125 77.6251111,73.8753187 C76.1625024,74.1588893 75.9565553,74.3571439 75.9565553,74.3571439 C75.9565553,74.3571439 75.6883696,74.603651 75.2499017,74.998412 C74.6222701,75.3991171 73.8932385,75.8998237 72.9320357,76.5040283 C71.3127814,77.522225 69.9169568,78.5407713 69.0676438,79.8603709 C68.3102901,81.0558429 67.9966491,82.4950247 68.3704308,84.406591 C69.1610018,88.4377686 74.605137,87.9748248 75.8282318,87.8283192 C81.6174769,87.1230641 82.3146899,88 85.8287271,88 C89.3333236,88 90.9151648,86.2471773 93.2861784,81.5124929 C95.6554437,76.7711651 94.161366,74.1414065 91.2658693,71.2466091 L91.2658693,71.2466091 Z M79.4181442,83.1779018 C78.9810749,86.7276038 73.8079226,87.1230641 71.790061,86.7276038 C71.790061,86.7276038 70.2092688,84.2286164 71.180262,82.0366264 C72.1411151,79.8453357 73.1897318,78.3516077 75.6474599,78.3516077 C78.1048384,78.3516077 79.8629059,79.6226052 79.4181442,83.1779018 L79.4181442,83.1779018 Z" id="Shape" fill="#FFFFFF"></path>
        </g>
    </g>
</svg>