<?xml version="1.0" encoding="UTF-8" standalone="no"?>
<svg width="128px" height="128px" viewBox="0 0 128 128" version="1.1" xmlns="http://www.w3.org/2000/svg" xmlns:xlink="http://www.w3.org/1999/xlink">
    <!-- Generator: Sketch 39 (31667) - http://www.bohemiancoding.com/sketch -->
    <title>Slice 1</title>
    <desc>Created with Sketch.</desc>
    <defs></defs>
    <g id="Page-1" stroke="none" stroke-width="1" fill="none" fill-rule="evenodd">
        <g id="Icon">
            <rect id="Rectangle-21" x="0" y="0" width="128" height="128"></rect>
            <path d="M95.2616332,41.9642029 L93.2907805,40 L90.4546146,40 L88.4854243,41.9642029 L68.744479,41.9642029 L68.744479,43.865232 L58.753062,43.865232 L58.753062,41.9642029 L40.606421,41.9642029 L39.4518387,40.1945085 L37.3812381,40.1945085 L35.8010647,43.865232 L32.2367389,43.865232 L32.2367389,49.3871108 C32.2367389,49.6256746 31.0123332,50.6339599 30.8311244,50.9182415 C30.4421075,51.5283663 29.9840983,52.7677342 30.7180768,53.234887 C31.2076728,53.5357932 32.2184518,53.4202519 32.7828588,53.5715362 C33.2275683,53.6870776 33.6298849,53.8375307 34.0180706,54.0686134 C34.0180706,54.0686134 36.6613906,55.1226165 36.6613906,58.8748009 C36.6613906,58.8748009 36.6613906,62.8156751 33.9690279,67.7182855 C32.6257558,70.1695907 26,78.8601286 26,85.5789825 C26,88.3661057 29.0738985,87.9820762 29.0738985,87.9820762 L44.7235165,87.9820762 C44.7235165,87.9820762 46.8448223,87.3054528 46.8448223,84.3321334 L52.9435766,67.4722406 C52.9435766,67.4722406 53.9718115,64.0467307 56.6458871,65.891236 C58.1520807,66.9336018 65.5558704,66.3974568 67.8650348,66.3974568 C70.1999674,66.3974568 72.5473686,64.4315914 72.9737909,62.3634845 L73.5498352,57.6279518 C73.5498352,57.6279518 73.9396833,56.1899192 78.5455437,56.1899192 L95.4561417,56.1899192 C95.4561417,56.1899192 98.121905,56.0893401 98.121905,53.0146103 L98.121905,47.4927315 L100.765225,47.4927315 L100.765225,41.9650341 L95.2616332,41.9642029 L95.2616332,41.9642029 L95.2616332,41.9642029 Z M67.4003757,63.8771592 L59.7131357,63.8771592 C59.7131357,63.8771592 56.0166439,64.0625241 56.0166439,60.021902 C56.0166439,56.7335454 58.5020297,55.9372245 59.8577702,55.9372245 C59.2542953,61.8680698 63.9989715,62.6469348 62.7945153,59.7600637 C61.5883967,56.8665427 64.6764262,55.5357391 64.6764262,55.5357391 L64.6764262,55.5357391 L67.9772512,55.5681572 C67.9772512,55.5681572 70.7635432,55.7036481 70.7635432,59.6852527 C70.762712,62.4266582 69.4202712,63.8771592 67.4003757,63.8771592 L67.4003757,63.8771592 Z" id="Shape" fill="#FFFFFF"></path>
        </g>
    </g>
</svg>