<?xml version="1.0" encoding="UTF-8" standalone="no"?>
<svg width="92px" height="129px" viewBox="0 0 92 129" version="1.1" xmlns="http://www.w3.org/2000/svg" xmlns:xlink="http://www.w3.org/1999/xlink">
    <!-- Generator: Sketch 39 (31667) - http://www.bohemiancoding.com/sketch -->
    <title>Slice 1</title>
    <desc>Created with Sketch.</desc>
    <defs></defs>
    <g id="Page-1" stroke="none" stroke-width="1" fill="none" fill-rule="evenodd">
        <g id="Group" fill="#DF2000">
            <g transform="translate(10.666667, 0.000000)" id="Shape">
                <path d="M47.7386667,9.968 C47.7386667,4.736 41.9893333,1.26133333 35.6773333,1.26133333 C29.36,1.26133333 23.5573333,5.248 23.5573333,10.48 C23.5573333,11.832 23.8986667,12.8693333 23.7813333,14.5333333 L25.2053333,26.6666667 C25.2053333,26.6666667 32.816,33.7813333 36.0426667,33.7253333 C39.12,33.6746667 46.1466667,26.6666667 46.1466667,26.6666667 L47.5733333,14.5386667 C47.5733333,12.5253333 47.7386667,11.3226667 47.7386667,9.968 L47.7386667,9.968 Z"></path>
                <path d="M69.0053333,56 L69.3333333,54.872 L69.3333333,56 L69.224,56 L60.9573333,36.3786667 L48.3226667,32.6026667 C48.3226667,32.6026667 39.776,40.8106667 36.0746667,40.832 C32.3013333,40.856 23.488,32.3866667 23.488,32.3866667 L8.824,37.3733333 L2.664,56 L2.66666667,56 L2.66666667,66.6666667 L69.3333333,66.6666667 L69.3333333,56 L69.0053333,56 L69.0053333,56 Z"></path>
            </g>
            <rect id="Rectangle-path" x="0" y="74.6666667" width="90.6666667" height="13.3333333"></rect>
            <polygon id="Shape" points="78.7866667 128 14.216 128 5.96 90.6666667 87.0426667 90.6666667"></polygon>
        </g>
    </g>
</svg>