<?xml version="1.0" encoding="UTF-8" standalone="no"?>
<svg width="360px" height="241px" viewBox="0 0 360 241" version="1.1" xmlns="http://www.w3.org/2000/svg" xmlns:xlink="http://www.w3.org/1999/xlink">
    <!-- Generator: Sketch 39 (31667) - http://www.bohemiancoding.com/sketch -->
    <title>Slice 1</title>
    <desc>Created with Sketch.</desc>
    <defs></defs>
    <g id="Page-1" stroke="none" stroke-width="1" fill="none" fill-rule="evenodd">
        <g id="Icon">
            <rect id="Rectangle-44" x="0" y="0" width="360" height="240"></rect>
            <g id="Shape" transform="translate(84.000000, 24.000000)" stroke="#FAFAEF">
                <polygon stroke-width="4" points="81.7002667 154.976 82.176 159.104 81.5402667 160.8512 69.7877333 160.5312 78.9952 167.84 77.0922667 173.079467 68.832 174.0288 73.9114667 181.815467 67.3984 183.400533 70.7306667 190.5472 0.8576 165.115733 13.5744 130.178133"></polygon>
                <polygon stroke-width="4" points="173.883733 127.016533 188.7168 160.3328 118.749867 191.488 119.8592 185.0048 125.218133 174.632533 114.664533 173.346133 124.1024 163.1552 109.472 161.6832 105.582933 157.429333"></polygon>
                <path d="M92.0362667,39.4666667 C92.0362667,39.4666667 80.6016,40.5333333 80.6016,34.1333333 C80.6016,27.7333333 92.0362667,28.8 92.0362667,28.8 L118.4,28.8 L118.4,39.4666667 L92.0362667,39.4666667 L92.0362667,39.4666667 Z" stroke-width="3" fill="#FAFAEF"></path>
                <path d="M55.5690667,101.333333 C55.5690667,101.333333 31.5328,102.4 31.5328,94.9333333 C31.5328,87.4666667 55.5690667,88.5333333 55.5690667,88.5333333 L126.933333,88.5333333 L126.933333,101.333333 L55.5690667,101.333333 L55.5690667,101.333333 Z" stroke-width="3" fill="#FAFAEF"></path>
                <path d="M45.0346667,80 C45.0346667,80 20.8661333,81.0666667 20.8661333,73.6 C20.8661333,66.1333333 45.0346667,67.2 45.0346667,67.2 L116.266667,67.2 L116.266667,80 L45.0346667,80 L45.0346667,80 Z" stroke-width="3" fill="#FAFAEF"></path>
                <path d="M59.3557333,58.6666667 C59.3557333,58.6666667 37.9328,59.7333333 37.9328,53.3333333 C37.9328,46.9333333 59.3557333,48 59.3557333,48 L122.666667,48 L122.666667,58.6666667 L59.3557333,58.6666667 L59.3557333,58.6666667 Z" stroke-width="3" fill="#FAFAEF"></path>
                <path d="M69.8944,118.4 C69.8944,118.4 52.8682667,119.466667 52.8682667,114.133333 C52.8682667,108.8 69.8944,109.866667 69.8944,109.866667 L120.533333,109.866667 L120.533333,118.4 L69.8944,118.4 L69.8944,118.4 Z" stroke-width="3" fill="#FAFAEF"></path>
                <path d="M121.6,117.137067 C121.6,117.137067 164.266667,119.082667 164.266667,76.32 C164.266667,29.6704 121.6,29.6704 121.6,29.6704 L121.6,117.137067 L121.6,117.137067 Z" stroke-width="4" fill="#FAFAEF"></path>
                <rect id="Rectangle-path" stroke-width="4" fill="#FAFAEF" x="100.266667" y="59.7333333" width="25.6" height="29.8666667"></rect>
                <rect id="Rectangle-path" stroke-width="4" fill="#FAFAEF" x="100.266667" y="98.1333333" width="25.6" height="10.6666667"></rect>
                <path d="M99.0122667,0 L96,21.3333333" stroke-width="2"></path>
                <path d="M156.612267,4.26666667 L153.6,25.6" stroke-width="2"></path>
                <path d="M135.278933,2.13333333 L132.266667,23.4666667" stroke-width="2"></path>
                <path d="M116.078933,2.13333333 L113.066667,23.4666667" stroke-width="2"></path>
            </g>
        </g>
    </g>
</svg>