<?xml version="1.0" encoding="UTF-8" standalone="no"?>
<svg width="360px" height="241px" viewBox="0 0 360 241" version="1.1" xmlns="http://www.w3.org/2000/svg" xmlns:xlink="http://www.w3.org/1999/xlink">
    <!-- Generator: Sketch 39 (31667) - http://www.bohemiancoding.com/sketch -->
    <title>Slice 1</title>
    <desc>Created with Sketch.</desc>
    <defs></defs>
    <g id="Page-1" stroke="none" stroke-width="1" fill="none" fill-rule="evenodd">
        <g id="Icon">
            <rect id="Rectangle-44" x="0" y="0" width="360" height="240"></rect>
            <g id="Group" transform="translate(102.000000, 24.000000)" fill="#FAFAEF">
                <path d="M149.12,82.3466667 C149.12,76.8 145.28,71.68 138.026667,71.68 C132.48,71.68 127.36,75.0933333 127.36,82.3466667 C127.36,87.8933333 130.773333,93.44 138.026667,93.44 C143.36,93.44 149.12,89.6 149.12,82.3466667 L149.12,82.3466667 Z M144.64,82.3466667 C144.64,85.76 140.8,88.96 138.026667,88.96 C134.186667,88.96 131.84,85.12 131.84,82.3466667 C131.84,78.5066667 135.253333,76.16 138.026667,76.16 C141.866667,76.16 144.64,79.5733333 144.64,82.3466667 L144.64,82.3466667 Z" id="Shape"></path>
                <path d="M155.733333,50.9866667 C155.733333,44.3733333 150.186667,35.84 140.16,35.84 C131.84,35.84 125.013333,42.4533333 125.013333,50.9866667 C125.013333,58.24 129.92,66.56 140.16,66.56 C147.413333,66.7733333 155.733333,61.2266667 155.733333,50.9866667 L155.733333,50.9866667 Z M151.253333,50.9866667 C151.253333,58.24 144,62.08 140.16,62.08 C132.906667,62.08 129.493333,55.4666667 129.493333,50.9866667 C129.493333,45.44 134.613333,40.32 140.16,40.32 C147.413333,40.5333333 151.253333,47.1466667 151.253333,50.9866667 L151.253333,50.9866667 Z" id="Shape"></path>
                <path d="M124.586667,35.4133333 C124.586667,29.8666667 120.746667,24.7466667 113.493333,24.7466667 C107.946667,24.7466667 102.826667,28.16 102.826667,35.4133333 C102.826667,40.96 106.24,46.5066667 113.493333,46.5066667 C119.04,46.72 124.586667,42.6666667 124.586667,35.4133333 L124.586667,35.4133333 Z M120.106667,35.4133333 C120.106667,38.8266667 116.266667,42.0266667 113.493333,42.0266667 C109.653333,42.0266667 107.306667,38.1866667 107.306667,35.4133333 C107.306667,31.5733333 110.72,29.2266667 113.493333,29.2266667 C117.76,29.2266667 120.106667,32.64 120.106667,35.4133333 L120.106667,35.4133333 Z" id="Shape"></path>
                <path d="M39.4666667,0.426666667 C14.5066667,4.05333333 -2.98666667,27.3066667 0.426666667,52.6933333 C3.84,78.08 27.0933333,95.7866667 52.2666667,91.9466667 C67.6266667,89.6 80,79.7866667 86.4,66.7733333 L97.28,65.0666667 C101.12,64.4266667 103.68,61.0133333 103.04,57.1733333 L97.7066667,20.0533333 C97.0666667,16.2133333 93.6533333,13.6533333 90.0266667,14.2933333 L80,15.7866667 C70.1866667,4.26666667 55.2533333,-1.70666667 39.4666667,0.426666667 L39.4666667,0.426666667 Z M41.6,15.5733333 C58.24,13.2266667 73.3866667,24.7466667 75.9466667,41.3866667 C78.2933333,58.24 66.7733333,73.8133333 50.1333333,76.3733333 C33.4933333,78.9333333 17.92,67.2 15.5733333,50.3466667 C13.2266667,33.4933333 24.96,17.92 41.6,15.5733333 L41.6,15.5733333 Z M89.6,33.7066667 C92.8,33.28 95.7866667,35.4133333 96.2133333,38.4 C96.64,41.3866667 94.2933333,44.3733333 91.0933333,44.8 C87.8933333,45.2266667 80.2133333,43.9466667 79.7866667,40.7466667 C79.5733333,37.76 86.4,34.3466667 89.6,33.7066667 L89.6,33.7066667 Z" id="Shape"></path>
                <path d="M66.7733333,127.573333 C56.32,151.04 66.7733333,178.346667 89.8133333,188.16 C112.64,197.973333 139.52,187.093333 149.973333,163.84 C156.373333,149.546667 154.88,133.973333 147.84,121.6 L152.32,111.36 C153.813333,107.733333 152.32,103.68 148.906667,102.186667 L114.986667,87.04 C111.573333,85.5466667 107.52,87.04 105.813333,90.6666667 L101.546667,100.053333 C86.8266667,102.826667 73.3866667,112.64 66.7733333,127.573333 L66.7733333,127.573333 Z M80.64,133.76 C87.4666667,118.186667 105.6,110.933333 120.96,117.76 C136.106667,124.586667 142.933333,142.506667 136.106667,158.08 C129.28,173.653333 111.36,180.906667 96,174.293333 C80.64,167.68 73.6,149.546667 80.64,133.76 L80.64,133.76 Z M122.026667,101.76 C123.306667,98.7733333 126.72,97.28 129.493333,98.56 C132.266667,99.84 133.333333,103.253333 132.053333,106.24 C130.773333,109.226667 125.44,115.2 122.666667,113.92 C119.893333,112.64 120.746667,104.746667 122.026667,101.76 L122.026667,101.76 Z" id="Shape"></path>
            </g>
        </g>
    </g>
</svg>