<?xml version="1.0" encoding="UTF-8" standalone="no"?>
<svg width="360px" height="241px" viewBox="0 0 360 241" version="1.1" xmlns="http://www.w3.org/2000/svg" xmlns:xlink="http://www.w3.org/1999/xlink">
    <!-- Generator: Sketch 39 (31667) - http://www.bohemiancoding.com/sketch -->
    <title>Slice 1</title>
    <desc>Created with Sketch.</desc>
    <defs></defs>
    <g id="Page-1" stroke="none" stroke-width="1" fill="none" fill-rule="evenodd">
        <g id="Icon">
            <rect id="Rectangle-44" x="0" y="0" width="360" height="240"></rect>
            <path d="M212.307692,107.076923 C212.307692,132.014423 192.014423,152.307692 167.076923,152.307692 C142.139423,152.307692 121.846154,132.014423 121.846154,107.076923 C121.846154,82.1394231 142.139423,61.8461538 167.076923,61.8461538 C192.014423,61.8461538 212.307692,82.1394231 212.307692,107.076923 L212.307692,107.076923 Z M264,191.076923 C264,187.644231 262.586538,184.3125 260.264423,181.990385 L225.634615,147.360577 C233.8125,135.548077 238.153846,121.413462 238.153846,107.076923 C238.153846,67.8028846 206.350962,36 167.076923,36 C127.802885,36 96,67.8028846 96,107.076923 C96,146.350962 127.802885,178.153846 167.076923,178.153846 C181.413462,178.153846 195.548077,173.8125 207.360577,165.634615 L241.990385,200.163462 C244.3125,202.586538 247.644231,204 251.076923,204 C258.144231,204 264,198.144231 264,191.076923 L264,191.076923 Z" id="" fill="#FAFAEF"></path>
        </g>
    </g>
</svg>