<?xml version="1.0" encoding="UTF-8" standalone="no"?>
<svg width="360px" height="241px" viewBox="0 0 360 241" version="1.1" xmlns="http://www.w3.org/2000/svg" xmlns:xlink="http://www.w3.org/1999/xlink">
    <!-- Generator: Sketch 39 (31667) - http://www.bohemiancoding.com/sketch -->
    <title>Slice 1</title>
    <desc>Created with Sketch.</desc>
    <defs></defs>
    <g id="Page-1" stroke="none" stroke-width="1" fill="none" fill-rule="evenodd">
        <g id="Icon">
            <rect id="Rectangle-44" x="0" y="0" width="360" height="240"></rect>
            <g id="Group" transform="translate(102.000000, 24.000000)" fill="#FAFAEF">
                <path d="M42.9609796,47.2672653 L150.210612,47.2672653 L146.292245,43.348898 L146.292245,184.167184 L150.210612,180.248816 L42.9609796,180.248816 L46.8793469,184.167184 L46.8793469,43.348898 L42.9609796,47.2672653 L42.9609796,47.2672653 Z M42.9609796,39.4305306 L39.0426122,39.4305306 L39.0426122,43.348898 L39.0426122,184.167184 L39.0426122,188.085551 L42.9609796,188.085551 L150.210612,188.085551 L154.12898,188.085551 L154.12898,184.167184 L154.12898,43.348898 L154.12898,39.4305306 L150.210612,39.4305306 L42.9609796,39.4305306 L42.9609796,39.4305306 Z" id="Rectangle-path"></path>
                <polygon id="Shape" points="29.6816327 165.261061 29.6816327 24.4427755 25.7632653 28.3611429 133.016816 28.3611429 133.016816 20.5244082 25.7632653 20.5244082 21.844898 20.5244082 21.844898 24.4427755 21.844898 165.261061"></polygon>
                <polygon id="Shape" points="10.442449 144.740571 10.442449 3.91836735 6.52408163 7.83673469 113.769796 7.83673469 113.769796 0 6.52408163 0 2.60571429 0 2.60571429 3.91836735 2.60571429 144.740571"></polygon>
                <polygon id="Shape" points="60.1508571 141.684245 133.016816 141.684245 133.016816 133.84751 60.1508571 133.84751"></polygon>
                <polygon id="Shape" points="60.1508571 164.947592 133.016816 164.947592 133.016816 157.110857 60.1508571 157.110857"></polygon>
                <polygon id="Shape" points="60.1508571 71.9020408 133.016816 71.9020408 133.016816 64.0653061 60.1508571 64.0653061"></polygon>
                <polygon id="Shape" points="60.1508571 95.1614694 133.016816 95.1614694 133.016816 87.3247347 60.1508571 87.3247347"></polygon>
                <polygon id="Shape" points="60.1508571 118.424816 133.016816 118.424816 133.016816 110.588082 60.1508571 110.588082"></polygon>
            </g>
        </g>
    </g>
</svg>