<?xml version="1.0" encoding="UTF-8" standalone="no"?>
<svg width="360px" height="241px" viewBox="0 0 360 241" version="1.1" xmlns="http://www.w3.org/2000/svg" xmlns:xlink="http://www.w3.org/1999/xlink">
    <!-- Generator: Sketch 39 (31667) - http://www.bohemiancoding.com/sketch -->
    <title>Slice 1</title>
    <desc>Created with Sketch.</desc>
    <defs></defs>
    <g id="Page-1" stroke="none" stroke-width="1" fill="none" fill-rule="evenodd">
        <g id="Icon">
            <rect id="Rectangle-44" x="0" y="0" width="360" height="240"></rect>
            <path d="M264,181.192374 C264,177.892548 262.641248,174.689775 260.409012,172.360485 L225.17851,137.129983 C222.84922,134.897747 219.646447,133.538995 216.34662,133.538995 C212.658579,133.538995 209.649913,135.091854 207.029463,137.712305 L182.183709,112.866551 L194.412478,100.637782 C195.285962,99.7642981 195.771231,98.5996534 195.771231,97.3379549 C195.771231,96.0762565 195.285962,94.9116118 194.412478,94.0381282 C197.32409,96.94974 199.459272,99.6672444 203.923744,99.6672444 C206.44714,99.6672444 208.679376,98.6967071 210.523397,96.94974 C214.017331,93.6499133 218.67591,90.1559792 218.67591,84.915078 C218.67591,82.4887348 217.705373,80.0623917 215.958406,78.3154246 L176.360485,38.7175043 C174.613518,36.9705373 172.187175,36 169.760832,36 C164.519931,36 161.025997,40.6585789 157.72617,44.152513 C155.979203,45.9965338 155.008666,48.2287695 155.008666,50.7521664 C155.008666,55.2166378 157.72617,57.3518198 160.637782,60.2634315 C159.764298,59.389948 158.599653,58.9046794 157.337955,58.9046794 C156.076256,58.9046794 154.911612,59.389948 154.038128,60.2634315 L120.263432,94.0381282 C119.389948,94.9116118 118.904679,96.0762565 118.904679,97.3379549 C118.904679,98.5996534 119.389948,99.7642981 120.263432,100.637782 C117.35182,97.7261698 115.216638,95.0086655 110.752166,95.0086655 C108.228769,95.0086655 105.996534,95.9792028 104.152513,97.7261698 C100.658579,101.025997 96,104.519931 96,109.760832 C96,112.187175 96.9705373,114.613518 98.7175043,116.360485 L138.315425,155.958406 C140.062392,157.705373 142.488735,158.67591 144.915078,158.67591 C150.155979,158.67591 153.649913,154.017331 156.94974,150.523397 C158.696707,148.679376 159.667244,146.44714 159.667244,143.923744 C159.667244,139.459272 156.94974,137.32409 154.038128,134.412478 C154.911612,135.285962 156.076256,135.771231 157.337955,135.771231 C158.599653,135.771231 159.764298,135.285962 160.637782,134.412478 L172.866551,122.183709 L197.712305,147.029463 C195.091854,149.649913 193.538995,152.658579 193.538995,156.34662 C193.538995,159.646447 194.897747,162.84922 197.227036,165.081456 L232.457539,200.409012 C234.689775,202.641248 237.892548,204 241.192374,204 C244.492201,204 247.694974,202.641248 250.024263,200.409012 L260.409012,189.92721 C262.641248,187.694974 264,184.492201 264,181.192374 L264,181.192374 Z" id="" fill="#FAFAEF"></path>
        </g>
    </g>
</svg>