<?xml version="1.0" encoding="UTF-8" standalone="no"?>
<svg width="360px" height="241px" viewBox="0 0 360 241" version="1.1" xmlns="http://www.w3.org/2000/svg" xmlns:xlink="http://www.w3.org/1999/xlink">
    <!-- Generator: Sketch 39 (31667) - http://www.bohemiancoding.com/sketch -->
    <title>Slice 1</title>
    <desc>Created with Sketch.</desc>
    <defs></defs>
    <g id="Page-1" stroke="none" stroke-width="1" fill="none" fill-rule="evenodd">
        <g id="Icon">
            <rect id="Rectangle-44" x="0" y="0" width="360" height="240"></rect>
            <path d="M254.661363,66.1978022 L256.450549,66.1978022 C259.946637,66.1978022 262.78022,63.3642198 262.78022,59.8681319 C262.78022,56.372044 259.946637,53.5384615 256.450549,53.5384615 L187.402286,53.5384615 L186.824176,30.3296703 C186.824176,26.8335824 183.990593,24 180.494505,24 C176.998418,24 174.164835,26.8335824 174.164835,30.3296703 L173.586725,53.5384615 L104.538462,53.5384615 C101.042374,53.5384615 98.2087912,56.372044 98.2087912,59.8681319 C98.2087912,63.3642198 101.042374,66.1978022 104.538462,66.1978022 L106.327648,66.1978022 L75,156.923077 C75,156.923077 75,178.021978 112.978022,178.021978 C150.956044,178.021978 150.956044,156.923077 150.956044,156.923077 L119.628396,66.1978022 L173.272352,66.1978022 L173.160527,70.6623297 C169.940835,72.9578901 167.835165,76.7113846 167.835165,80.967033 C167.835165,84.9948132 169.723516,88.5774066 172.656264,90.8961758 L170.056879,195.247121 C129.888791,197.933011 129.857143,216 129.857143,216 L231.131868,216 C231.131868,216 231.09811,197.933011 190.932132,195.245011 L188.332747,90.8940659 C191.263385,88.5752967 193.153846,84.9948132 193.153846,80.967033 C193.153846,76.7134945 191.048176,72.9578901 187.830593,70.6623297 L187.718769,66.1978022 L241.360615,66.1978022 L210.032967,156.923077 C210.032967,156.923077 210.032967,178.021978 248.010989,178.021978 C285.989011,178.021978 285.989011,156.923077 285.989011,156.923077 L254.661363,66.1978022 L254.661363,66.1978022 Z M108.758242,85.3598242 L108.758242,156.923077 L84.3953407,156.923077 L108.758242,85.3598242 L108.758242,85.3598242 Z M117.197802,156.923077 L117.197802,85.3598242 L141.560703,156.923077 L117.197802,156.923077 L117.197802,156.923077 Z M252.230769,85.3598242 L276.59367,156.923077 L252.230769,156.923077 L252.230769,85.3598242 L252.230769,85.3598242 Z M243.791209,85.3598242 L243.791209,156.923077 L219.428308,156.923077 L243.791209,85.3598242 L243.791209,85.3598242 Z" id="Shape" fill="#FAFAEF"></path>
        </g>
    </g>
</svg>