<?xml version="1.0" encoding="UTF-8" standalone="no"?>
<svg width="602px" height="267px" viewBox="0 0 602 267" version="1.1" xmlns="http://www.w3.org/2000/svg" xmlns:xlink="http://www.w3.org/1999/xlink">
    <!-- Generator: Sketch 40 (33762) - http://www.bohemiancoding.com/sketch -->
    <title>Slice 1</title>
    <desc>Created with Sketch.</desc>
    <defs></defs>
    <g id="Page-1" stroke="none" stroke-width="1" fill="none" fill-rule="evenodd">
        <g id="mazin---logo---CMYK" transform="translate(0.000000, -451.000000)">
            <g id="Bottom" transform="translate(0.000000, 451.000000)">
                <polygon id="Fill-43" fill="#C39133" points="0.06 147.052 601.571 147.052 601.571 144.013 0.06 144.013"></polygon>
                <path d="M17.941,193.983 C15.789,192.216 11.986,188.566 10.987,187.491 C9.988,186.415 7.529,183.688 6.454,182.113 C4.456,183.419 2.996,185.493 2.996,188.566 C2.996,193.369 6.377,196.826 10.68,196.826 C14.253,196.826 16.634,195.328 17.941,193.983 L17.941,193.983 Z M0,190.372 C0,185.877 2.881,182.881 5.878,181.114 C4.456,179.116 3.995,177.541 3.995,175.812 C3.995,172.777 7.107,168.744 12.255,168.744 C14.214,168.744 15.866,169.128 16.903,169.704 C17.364,169.973 17.402,170.204 17.402,170.665 C17.402,171.817 17.249,174.506 17.133,175.082 C17.018,175.659 16.903,175.736 16.75,175.736 C16.557,175.736 16.519,175.582 16.519,175.006 C16.519,174.007 16.288,172.739 15.328,171.74 C14.483,170.856 13.177,170.05 11.486,170.05 C9.181,170.05 6.607,171.471 6.607,175.082 C6.607,178.079 8.682,180.576 12.677,184.917 C13.983,186.338 18.709,190.756 19.938,191.794 C21.014,190.334 21.897,187.76 21.897,185.416 C21.897,184.84 21.743,184.11 21.167,183.534 C20.668,183.035 19.861,182.919 19.285,182.919 C19.054,182.919 18.824,182.842 18.824,182.65 C18.824,182.458 19.131,182.382 19.439,182.382 C20.36,182.382 21.897,182.42 24.048,182.65 C24.625,182.727 24.74,183.035 24.74,183.419 C24.74,186.531 22.627,190.41 20.937,192.485 C23.472,194.636 25.163,195.674 26.238,196.288 C27.468,197.018 29.427,197.786 30.81,197.786 C31.156,197.786 31.348,197.825 31.348,198.055 C31.348,198.209 31.04,198.324 30.694,198.324 L26.93,198.324 C24.087,198.324 23.165,198.055 18.939,194.713 C18.056,195.597 15.021,198.862 9.335,198.862 C2.612,198.862 0,193.714 0,190.372 L0,190.372 Z" id="Fill-42" fill="#454645"></path>
                <path d="M138.694,101.668 C139.324,107.326 140.423,116.125 147.179,118.324 C151.74,119.739 155.821,119.739 157.395,119.739 C158.179,119.739 158.65,119.895 158.65,120.523 C158.65,121.465 157.235,121.938 155.353,121.938 C151.894,121.938 134.922,121.465 129.11,120.997 C125.496,120.681 124.71,120.21 124.71,119.424 C124.71,118.795 125.025,118.482 125.81,118.324 C126.594,118.166 126.753,115.495 126.441,112.668 L118.895,31.585 L118.425,31.585 L79.927,113.296 C76.626,120.21 76.156,121.624 74.741,121.624 C73.642,121.624 72.857,120.053 69.87,114.397 C65.786,106.699 52.271,79.512 51.484,77.941 C50.071,75.112 32.472,37.401 30.742,33.157 L30.116,33.157 L23.831,106.068 C23.671,108.581 23.671,111.41 23.671,114.082 C23.671,116.44 25.4,118.482 27.758,118.953 C30.431,119.582 32.787,119.739 33.728,119.739 C34.358,119.739 34.987,120.053 34.987,120.523 C34.987,121.624 34.043,121.938 32.16,121.938 C26.345,121.938 18.801,121.465 17.544,121.465 C16.131,121.465 8.588,121.938 4.346,121.938 C2.773,121.938 1.674,121.624 1.674,120.523 C1.674,120.053 2.458,119.739 3.246,119.739 C4.502,119.739 5.601,119.739 7.959,119.268 C13.144,118.324 13.617,112.197 14.244,106.224 L25.559,3.774 C25.715,2.046 26.345,0.945 27.288,0.945 C28.231,0.945 28.856,1.573 29.643,3.301 L77.728,102.139 L123.925,3.459 C124.552,2.046 125.182,0.945 126.28,0.945 C127.381,0.945 127.854,2.202 128.168,5.189 L138.694,101.668" id="Fill-45" fill="#454645"></path>
                <path d="M234.9,79.197 C235.532,79.197 235.532,78.886 235.374,78.257 L221.701,41.643 C220.918,39.599 220.132,39.599 219.346,41.643 L206.462,78.257 C206.304,78.886 206.462,79.197 206.932,79.197 L234.9,79.197 L234.9,79.197 Z M219.502,23.573 C221.23,19.171 221.86,18.388 222.804,18.388 C224.218,18.388 224.689,20.273 226.102,23.26 C228.615,28.915 250.771,84.069 259.257,104.339 C264.287,116.281 268.057,118.01 271.041,118.953 C273.086,119.582 275.129,119.739 276.543,119.739 C277.327,119.739 278.271,120.053 278.271,120.838 C278.271,121.624 276.701,121.938 275.129,121.938 C273.086,121.938 262.873,121.938 253.286,121.624 C250.617,121.465 248.414,121.465 248.414,120.681 C248.414,120.053 248.73,120.053 249.359,119.739 C250.143,119.424 251.557,118.324 250.617,116.125 L238.203,85.485 C237.888,84.855 237.732,84.697 236.943,84.697 L205.045,84.697 C204.42,84.697 203.946,85.011 203.631,85.798 L195.776,107.168 C194.517,110.468 193.733,113.767 193.733,116.125 C193.733,118.795 196.09,119.739 198.449,119.739 L199.704,119.739 C200.804,119.739 201.117,120.21 201.117,120.838 C201.117,121.624 200.333,121.938 199.074,121.938 C195.776,121.938 188.232,121.465 186.664,121.465 C185.249,121.465 178.335,121.938 172.676,121.938 C170.946,121.938 170.007,121.624 170.007,120.838 C170.007,120.21 170.636,119.739 171.26,119.739 C172.206,119.739 174.249,119.582 175.348,119.424 C181.633,118.639 184.304,113.922 186.977,107.168 L219.502,23.573 L219.502,23.573 Z" id="Fill-46" fill="#454645"></path>
                <path d="M352.686,115.491 C367.63,115.491 371.487,113.079 374.7,109.223 C376.15,107.456 377.112,103.76 377.591,101.832 C377.915,100.546 378.4,99.744 379.199,99.744 C380.002,99.744 380.325,100.226 380.325,102.797 C380.325,107.136 378.4,115.171 377.433,118.543 C376.629,121.917 376.471,122.077 373.255,122.077 C349.633,122.077 325.694,121.434 300.954,121.434 C299.344,121.434 298.379,121.274 298.379,120.311 C298.379,119.668 298.54,118.702 300.307,116.133 C321.52,85.444 342.408,55.076 361.847,24.706 L331.965,24.706 C324.731,24.706 316.376,24.546 311.876,26.957 C306.894,29.528 304.325,34.51 303.844,37.721 C303.521,39.809 302.717,40.132 301.916,40.132 C301.272,40.132 301.11,39.491 301.11,38.365 C301.11,36.758 303.202,24.385 304.003,20.208 C304.165,18.279 304.484,17.637 305.286,17.637 C306.577,17.637 307.54,18.441 311.234,18.603 C324.731,19.083 331.477,18.923 335.979,18.923 L375.501,18.923 C377.591,18.923 378.4,19.245 378.4,20.049 C378.4,20.689 378.238,21.656 377.591,22.459 C357.028,53.949 336.462,84.48 315.091,115.491 L352.686,115.491" id="Fill-47" fill="#454645"></path>
                <path d="M439.129,82.229 C439.129,95.406 439.129,106.171 439.774,111.794 C440.254,115.811 440.738,118.381 444.914,119.025 C447.008,119.348 450.057,119.668 451.336,119.668 C452.145,119.668 452.466,120.311 452.466,120.792 C452.466,121.434 451.822,121.917 450.215,121.917 C442.343,121.917 433.184,121.434 432.541,121.434 C431.741,121.434 422.898,121.917 418.565,121.917 C417.119,121.917 416.317,121.595 416.317,120.792 C416.317,120.311 416.634,119.668 417.437,119.668 C418.724,119.668 420.493,119.348 421.774,119.025 C424.507,118.381 424.992,115.811 425.47,111.794 C426.112,106.171 426.274,95.406 426.274,82.229 L426.274,58.127 C426.274,36.92 426.274,33.062 425.954,28.726 C425.634,24.065 424.507,21.976 421.456,21.335 C419.849,21.012 418.078,20.852 417.119,20.852 C416.478,20.852 415.993,20.208 415.993,19.726 C415.993,18.923 416.634,18.603 418.242,18.603 C422.898,18.603 431.741,18.923 432.541,18.923 C433.184,18.923 442.343,18.603 446.683,18.603 C448.287,18.603 448.93,18.923 448.93,19.726 C448.93,20.208 448.287,20.852 447.805,20.852 C446.841,20.852 445.88,20.852 444.273,21.172 C440.414,21.976 439.61,23.903 439.289,28.726 C439.129,33.062 439.129,36.92 439.129,58.127 L439.129,82.229" id="Fill-48" fill="#454645"></path>
                <path d="M507.577,103.278 C507.896,114.525 509.181,117.9 513.037,118.866 C515.605,119.506 518.822,119.668 520.106,119.668 C520.754,119.668 521.233,120.15 521.233,120.792 C521.233,121.595 520.27,121.917 518.662,121.917 C510.63,121.917 505.011,121.434 503.719,121.434 C502.434,121.434 496.492,121.917 490.064,121.917 C488.615,121.917 487.811,121.757 487.811,120.792 C487.811,120.15 488.295,119.668 488.938,119.668 C490.064,119.668 492.635,119.506 494.719,118.866 C498.259,117.9 498.738,114.204 498.738,101.832 L498.738,23.583 C498.738,18.118 499.542,16.675 500.665,16.675 C502.275,16.675 504.683,19.404 506.132,20.852 C508.382,23.1 528.947,44.953 550.796,67.448 C564.778,81.91 579.878,98.135 584.218,102.637 L582.771,34.188 C582.609,25.352 581.811,22.296 577.472,21.493 C574.901,21.012 571.683,20.852 570.557,20.852 C569.6,20.852 569.435,20.049 569.435,19.567 C569.435,18.764 570.557,18.603 572.17,18.603 C578.593,18.603 585.345,18.923 586.95,18.923 C588.557,18.923 593.219,18.603 598.997,18.603 C600.445,18.603 601.571,18.764 601.571,19.567 C601.571,20.049 600.931,20.852 599.965,20.852 C599.325,20.852 598.197,20.852 596.591,21.172 C591.93,22.138 591.609,24.867 591.609,33.062 L591.287,113.079 C591.287,122.077 591.126,122.88 590.163,122.88 C588.715,122.88 587.273,121.757 579.399,114.525 C577.953,113.241 557.543,93.155 542.601,77.568 C526.215,60.378 510.304,43.668 505.967,38.846 L507.577,103.278" id="Fill-49" fill="#454645"></path>
                <path d="M32.429,246.954 C32.429,242.563 32.429,241.775 32.374,240.876 C32.317,239.919 32.091,239.467 31.163,239.272 C30.938,239.217 30.459,239.188 30.207,239.188 C30.093,239.188 29.981,239.13 29.981,239.019 C29.981,238.85 30.121,238.795 30.431,238.795 C31.697,238.795 33.385,238.879 33.611,238.879 C34.23,238.879 35.861,238.795 37.156,238.795 C40.673,238.795 41.939,239.975 42.387,240.396 C43.007,240.989 43.796,242.254 43.796,243.746 C43.796,247.74 40.87,250.443 36.875,250.443 C36.734,250.443 36.424,250.443 36.282,250.412 C36.142,250.412 35.975,250.357 35.975,250.216 C35.975,249.992 36.142,249.963 36.734,249.963 C39.462,249.963 41.601,247.965 41.601,245.377 C41.601,244.451 41.517,242.563 40.025,241.044 C38.533,239.526 36.818,239.638 36.17,239.638 C35.693,239.638 35.214,239.694 34.961,239.806 C34.792,239.864 34.736,240.059 34.736,240.341 L34.736,251.904 C34.736,254.605 34.736,256.828 34.877,258.009 C34.961,258.826 35.13,259.444 35.975,259.557 C36.367,259.614 36.986,259.671 37.24,259.671 C37.409,259.671 37.466,259.755 37.466,259.84 C37.466,259.979 37.324,260.064 37.014,260.064 C35.466,260.064 33.695,259.979 33.554,259.979 C33.47,259.979 31.697,260.064 30.853,260.064 C30.543,260.064 30.402,260.008 30.402,259.84 C30.402,259.755 30.459,259.671 30.629,259.671 C30.881,259.671 31.219,259.614 31.472,259.557 C32.035,259.444 32.175,258.826 32.287,258.009 C32.429,256.828 32.429,254.605 32.429,251.904 L32.429,246.954" id="Fill-50" fill="#636462"></path>
                <path d="M56.704,248.892 C56.704,245.179 56.704,244.504 56.647,243.746 C56.591,242.928 56.451,242.536 55.635,242.424 C55.438,242.394 55.016,242.367 54.79,242.367 C54.707,242.367 54.595,242.254 54.595,242.171 C54.595,242.028 54.707,241.974 54.986,241.974 C56.112,241.974 57.716,242.028 57.856,242.028 C58.026,242.028 63.203,242.056 63.765,242.028 C64.242,242.001 64.694,241.917 64.89,241.886 C65.004,241.861 65.115,241.775 65.227,241.775 C65.314,241.775 65.34,241.886 65.34,242.001 C65.34,242.171 65.2,242.452 65.142,243.127 C65.115,243.35 65.059,244.421 65.004,244.703 C64.975,244.813 64.89,244.956 64.778,244.956 C64.638,244.956 64.583,244.842 64.583,244.644 C64.583,244.477 64.553,244.084 64.441,243.801 C64.271,243.409 64.018,243.239 62.669,243.072 C62.245,243.014 59.376,242.986 59.095,242.986 C58.982,242.986 58.954,243.072 58.954,243.239 L58.954,249.738 C58.954,249.906 58.954,249.992 59.095,249.992 C59.405,249.992 62.669,249.992 63.23,249.933 C63.82,249.877 64.187,249.851 64.441,249.599 C64.608,249.428 64.72,249.289 64.805,249.289 C64.89,249.289 64.946,249.343 64.946,249.486 C64.946,249.629 64.805,250.019 64.75,250.808 C64.694,251.287 64.638,252.185 64.638,252.354 C64.638,252.552 64.583,252.806 64.412,252.806 C64.3,252.806 64.242,252.719 64.242,252.58 C64.242,252.354 64.242,252.103 64.131,251.794 C64.048,251.454 63.82,251.174 62.865,251.06 C62.189,250.976 59.544,250.947 59.122,250.947 C58.982,250.947 58.954,251.032 58.954,251.118 L58.954,253.115 C58.954,253.929 58.925,256.715 58.954,257.195 C59.01,258.796 59.46,259.107 61.907,259.107 C62.554,259.107 63.737,259.107 64.384,258.854 C65.031,258.572 65.368,258.15 65.508,257.195 C65.565,256.911 65.621,256.828 65.762,256.828 C65.904,256.828 65.932,257.025 65.932,257.195 C65.932,257.363 65.735,258.995 65.593,259.501 C65.424,260.119 65.172,260.119 64.215,260.119 C62.36,260.119 60.923,260.064 59.909,260.035 C58.87,259.979 58.221,259.979 57.856,259.979 C57.801,259.979 57.322,259.979 56.788,260.008 C56.31,260.035 55.748,260.064 55.353,260.064 C55.099,260.064 54.96,260.008 54.96,259.867 C54.96,259.783 55.016,259.671 55.157,259.671 C55.381,259.671 55.691,259.585 55.916,259.557 C56.395,259.474 56.451,258.995 56.563,258.291 C56.704,257.307 56.704,255.424 56.704,253.115 L56.704,248.892" id="Fill-51" fill="#636462"></path>
                <path d="M81.654,250.921 C81.654,251.06 81.71,251.146 81.822,251.229 C82.188,251.424 83.454,251.593 84.552,251.593 C85.142,251.593 85.818,251.566 86.408,251.174 C87.252,250.609 87.899,249.343 87.899,247.516 C87.899,244.535 86.267,242.816 83.622,242.816 C82.891,242.816 82.104,242.9 81.852,242.959 C81.736,243.014 81.654,243.097 81.654,243.239 L81.654,250.921 L81.654,250.921 Z M79.514,248.892 C79.514,245.179 79.514,244.504 79.459,243.746 C79.402,242.928 79.262,242.536 78.445,242.424 C78.25,242.394 77.827,242.367 77.601,242.367 C77.518,242.367 77.405,242.254 77.405,242.171 C77.405,242.028 77.518,241.974 77.798,241.974 C78.923,241.974 80.584,242.028 80.724,242.028 C80.978,242.028 83.061,241.974 83.821,241.974 C85.397,241.974 87.141,242.114 88.433,243.014 C89.053,243.465 90.15,244.62 90.15,246.279 C90.15,248.052 89.418,249.765 87.111,251.735 C89.137,254.268 90.854,256.434 92.288,257.924 C93.61,259.276 94.426,259.501 95.044,259.585 C95.523,259.671 95.777,259.671 95.918,259.671 C96.057,259.671 96.143,259.783 96.143,259.867 C96.143,260.008 96.005,260.064 95.553,260.064 L94.005,260.064 C92.598,260.064 91.978,259.921 91.359,259.585 C90.289,259.022 89.389,257.872 87.984,256.07 C86.943,254.775 85.844,253.227 85.311,252.58 C85.199,252.466 85.142,252.441 84.974,252.441 L81.822,252.382 C81.71,252.382 81.654,252.441 81.654,252.58 L81.654,253.144 C81.654,255.449 81.654,257.307 81.766,258.291 C81.852,258.995 81.99,259.444 82.75,259.557 C83.087,259.614 83.622,259.671 83.847,259.671 C84.016,259.671 84.046,259.783 84.046,259.867 C84.046,259.979 83.932,260.064 83.65,260.064 C82.299,260.064 80.724,259.979 80.612,259.979 C80.584,259.979 78.923,260.064 78.165,260.064 C77.912,260.064 77.77,260.008 77.77,259.867 C77.77,259.783 77.827,259.671 77.967,259.671 C78.192,259.671 78.502,259.614 78.728,259.557 C79.206,259.444 79.262,258.995 79.375,258.291 C79.514,257.307 79.514,255.424 79.514,253.115 L79.514,248.892 L79.514,248.892 Z" id="Fill-52" fill="#636462"></path>
                <path d="M103.395,259.724 C103.058,259.557 103.029,259.474 103.029,258.826 C103.029,257.644 103.14,256.688 103.17,256.293 C103.17,256.041 103.227,255.901 103.368,255.901 C103.506,255.901 103.592,255.983 103.592,256.181 C103.592,256.379 103.592,256.715 103.675,257.053 C104.071,258.796 105.928,259.418 107.585,259.418 C110.034,259.418 111.302,258.038 111.302,256.238 C111.302,254.521 110.373,253.703 108.179,252.074 L107.051,251.229 C104.381,249.232 103.506,247.767 103.506,246.109 C103.506,243.296 105.73,241.609 108.994,241.609 C109.978,241.609 110.963,241.748 111.554,241.886 C112.032,242.001 112.228,242.001 112.426,242.001 C112.624,242.001 112.679,242.028 112.679,242.171 C112.679,242.283 112.567,243.072 112.567,244.703 C112.567,245.07 112.539,245.237 112.371,245.237 C112.201,245.237 112.172,245.124 112.144,244.925 C112.116,244.644 111.919,243.997 111.781,243.746 C111.612,243.465 110.794,242.563 108.572,242.563 C106.772,242.563 105.281,243.465 105.281,245.152 C105.281,246.671 106.04,247.543 108.488,249.206 L109.192,249.683 C112.201,251.735 113.242,253.396 113.242,255.449 C113.242,256.856 112.708,258.376 110.936,259.529 C109.895,260.205 108.346,260.37 106.995,260.37 C105.841,260.37 104.407,260.205 103.395,259.724" id="Fill-53" fill="#636462"></path>
                <path d="M135.098,259.387 C137.319,259.387 141.794,258.209 141.794,251.287 C141.794,245.546 138.306,242.536 134.395,242.536 C130.259,242.536 127.276,245.124 127.276,250.33 C127.276,255.901 130.625,259.387 135.098,259.387 L135.098,259.387 Z M134.536,241.636 C140.106,241.636 144.327,245.042 144.327,250.609 C144.327,255.955 140.36,260.37 134.395,260.37 C127.614,260.37 124.716,255.279 124.716,250.976 C124.716,247.122 127.698,241.636 134.536,241.636 L134.536,241.636 Z" id="Fill-54" fill="#636462"></path>
                <path d="M157.851,256.799 C157.908,258.77 158.134,259.361 158.81,259.529 C159.259,259.642 159.822,259.671 160.046,259.671 C160.159,259.671 160.245,259.755 160.245,259.867 C160.245,260.008 160.075,260.064 159.794,260.064 C158.386,260.064 157.402,259.979 157.177,259.979 C156.952,259.979 155.911,260.064 154.785,260.064 C154.533,260.064 154.392,260.035 154.392,259.867 C154.392,259.755 154.476,259.671 154.588,259.671 C154.785,259.671 155.236,259.642 155.601,259.529 C156.222,259.361 156.304,258.712 156.304,256.549 L156.304,242.845 C156.304,241.886 156.446,241.636 156.644,241.636 C156.924,241.636 157.346,242.114 157.6,242.367 C157.993,242.761 161.593,246.588 165.419,250.525 C167.868,253.057 170.513,255.901 171.272,256.688 L171.018,244.703 C170.991,243.156 170.85,242.621 170.091,242.48 C169.64,242.394 169.078,242.367 168.88,242.367 C168.712,242.367 168.683,242.224 168.683,242.142 C168.683,242.001 168.88,241.974 169.163,241.974 C170.289,241.974 171.469,242.028 171.751,242.028 C172.032,242.028 172.848,241.974 173.861,241.974 C174.113,241.974 174.311,242.001 174.311,242.142 C174.311,242.224 174.199,242.367 174.03,242.367 C173.916,242.367 173.721,242.367 173.437,242.424 C172.624,242.591 172.567,243.072 172.567,244.504 L172.511,258.518 C172.511,260.092 172.482,260.231 172.313,260.231 C172.06,260.231 171.805,260.035 170.427,258.77 C170.177,258.548 166.602,255.029 163.986,252.299 C161.115,249.289 158.33,246.362 157.571,245.517 L157.851,256.799" id="Fill-55" fill="#636462"></path>
                <path d="M194.055,252.411 C194.167,252.411 194.167,252.354 194.14,252.242 L191.691,245.686 C191.549,245.322 191.41,245.322 191.269,245.686 L188.96,252.242 C188.934,252.354 188.96,252.411 189.045,252.411 L194.055,252.411 L194.055,252.411 Z M191.297,242.452 C191.608,241.665 191.72,241.522 191.887,241.522 C192.142,241.522 192.225,241.861 192.479,242.394 C192.928,243.409 196.897,253.285 198.414,256.911 C199.317,259.05 199.99,259.361 200.524,259.529 C200.89,259.642 201.256,259.671 201.511,259.671 C201.651,259.671 201.819,259.724 201.819,259.867 C201.819,260.008 201.539,260.064 201.256,260.064 C200.89,260.064 199.063,260.064 197.345,260.008 C196.868,259.979 196.475,259.979 196.475,259.84 C196.475,259.724 196.531,259.724 196.643,259.671 C196.782,259.614 197.034,259.418 196.868,259.022 L194.645,253.536 C194.589,253.424 194.562,253.396 194.421,253.396 L188.709,253.396 C188.598,253.396 188.512,253.453 188.456,253.591 L187.047,257.419 C186.824,258.009 186.682,258.6 186.682,259.022 C186.682,259.501 187.104,259.671 187.526,259.671 L187.753,259.671 C187.948,259.671 188.004,259.755 188.004,259.867 C188.004,260.008 187.865,260.064 187.641,260.064 C187.047,260.064 185.699,259.979 185.417,259.979 C185.165,259.979 183.924,260.064 182.913,260.064 C182.603,260.064 182.435,260.008 182.435,259.867 C182.435,259.755 182.546,259.671 182.66,259.671 C182.828,259.671 183.195,259.642 183.391,259.614 C184.517,259.474 184.995,258.63 185.474,257.419 L191.297,242.452 L191.297,242.452 Z" id="Fill-56" fill="#636462"></path>
                <path d="M214.642,253.169 C214.642,256.688 214.698,258.124 215.149,258.548 C215.542,258.937 216.498,259.107 218.44,259.107 C219.736,259.107 220.831,259.077 221.423,258.376 C221.731,258.009 221.929,257.504 222.015,257.025 C222.042,256.856 222.127,256.715 222.268,256.715 C222.381,256.715 222.437,256.828 222.437,257.08 C222.437,257.334 222.268,258.77 222.071,259.474 C221.903,260.035 221.815,260.119 220.495,260.119 C218.723,260.119 217.342,260.092 216.191,260.035 C215.064,260.008 214.219,259.979 213.49,259.979 C213.376,259.979 212.954,259.979 212.475,260.008 C211.972,260.035 211.436,260.064 211.041,260.064 C210.788,260.064 210.649,260.008 210.649,259.867 C210.649,259.783 210.704,259.671 210.846,259.671 C211.07,259.671 211.38,259.614 211.605,259.557 C212.083,259.444 212.139,258.995 212.251,258.291 C212.394,257.307 212.394,255.424 212.394,253.115 L212.394,248.892 C212.394,245.179 212.394,244.504 212.336,243.746 C212.28,242.928 212.139,242.536 211.325,242.424 C211.127,242.394 210.704,242.367 210.477,242.367 C210.395,242.367 210.282,242.254 210.282,242.171 C210.282,242.028 210.395,241.974 210.675,241.974 C211.802,241.974 213.349,242.028 213.49,242.028 C213.603,242.028 215.459,241.974 216.217,241.974 C216.472,241.974 216.613,242.028 216.613,242.171 C216.613,242.254 216.498,242.34 216.416,242.34 C216.247,242.34 215.881,242.367 215.599,242.394 C214.869,242.536 214.728,242.9 214.671,243.746 C214.642,244.504 214.642,245.179 214.642,248.892 L214.642,253.169" id="Fill-57" fill="#636462"></path>
                <path d="M254.189,251.904 C254.189,254.605 254.189,256.828 254.333,258.009 C254.417,258.826 254.585,259.444 255.429,259.557 C255.821,259.614 256.441,259.671 256.695,259.671 C256.864,259.671 256.919,259.755 256.919,259.84 C256.919,259.979 256.778,260.064 256.468,260.064 C254.921,260.064 253.151,259.979 253.009,259.979 C252.868,259.979 251.096,260.064 250.252,260.064 C249.942,260.064 249.801,260.008 249.801,259.84 C249.801,259.755 249.856,259.671 250.027,259.671 C250.279,259.671 250.618,259.614 250.872,259.557 C251.433,259.444 251.575,258.826 251.687,258.009 C251.828,256.828 251.828,254.605 251.828,251.904 L251.828,246.954 C251.828,242.563 251.828,241.775 251.773,240.876 C251.713,239.919 251.433,239.441 250.816,239.3 C250.505,239.217 250.14,239.188 249.942,239.188 C249.831,239.188 249.717,239.13 249.717,239.019 C249.717,238.85 249.856,238.795 250.167,238.795 C251.096,238.795 252.868,238.879 253.009,238.879 C253.151,238.879 254.921,238.795 255.766,238.795 C256.076,238.795 256.216,238.85 256.216,239.019 C256.216,239.13 256.105,239.188 255.993,239.188 C255.795,239.188 255.627,239.217 255.288,239.272 C254.529,239.412 254.302,239.891 254.249,240.876 C254.189,241.775 254.189,242.563 254.189,246.954 L254.189,251.904" id="Fill-58" fill="#636462"></path>
                <path d="M271.91,256.799 C271.967,258.77 272.191,259.361 272.868,259.529 C273.318,259.642 273.879,259.671 274.107,259.671 C274.218,259.671 274.304,259.755 274.304,259.867 C274.304,260.008 274.133,260.064 273.853,260.064 C272.445,260.064 271.459,259.979 271.235,259.979 C271.009,259.979 269.969,260.064 268.844,260.064 C268.59,260.064 268.452,260.035 268.452,259.867 C268.452,259.755 268.534,259.671 268.647,259.671 C268.844,259.671 269.296,259.642 269.661,259.529 C270.279,259.361 270.364,258.712 270.364,256.549 L270.364,242.845 C270.364,241.886 270.503,241.636 270.7,241.636 C270.983,241.636 271.406,242.114 271.658,242.367 C272.053,242.761 275.653,246.588 279.479,250.525 C281.929,253.057 284.573,255.901 285.331,256.688 L285.078,244.703 C285.05,243.156 284.909,242.621 284.151,242.48 C283.699,242.394 283.138,242.367 282.941,242.367 C282.773,242.367 282.743,242.224 282.743,242.142 C282.743,242.001 282.941,241.974 283.221,241.974 C284.345,241.974 285.529,242.028 285.808,242.028 C286.092,242.028 286.907,241.974 287.919,241.974 C288.172,241.974 288.371,242.001 288.371,242.142 C288.371,242.224 288.258,242.367 288.087,242.367 C287.976,242.367 287.778,242.367 287.497,242.424 C286.683,242.591 286.627,243.072 286.627,244.504 L286.571,258.518 C286.571,260.092 286.542,260.231 286.373,260.231 C286.119,260.231 285.866,260.035 284.487,258.77 C284.233,258.548 280.661,255.029 278.044,252.299 C275.174,249.289 272.389,246.362 271.631,245.517 L271.91,256.799" id="Fill-59" fill="#636462"></path>
                <path d="M303.865,254.633 C303.865,258.518 303.782,260.008 303.05,261.695 C302.515,262.905 301.417,264.03 299.419,265.353 C299.083,265.58 298.661,265.833 298.407,265.971 C298.381,265.971 298.323,266 298.239,266 C298.182,266 298.07,265.971 298.07,265.86 C298.07,265.719 298.152,265.604 298.381,265.465 C298.687,265.299 299.026,265.017 299.251,264.818 C300.854,263.216 301.616,261.978 301.616,255.812 L301.616,248.892 C301.616,245.179 301.616,244.504 301.559,243.746 C301.501,242.928 301.361,242.536 300.544,242.424 C300.349,242.394 299.927,242.367 299.7,242.367 C299.617,242.367 299.504,242.254 299.504,242.171 C299.504,242.028 299.617,241.974 299.898,241.974 C301.024,241.974 302.627,242.028 302.766,242.028 C302.881,242.028 304.428,241.974 305.186,241.974 C305.47,241.974 305.583,242.028 305.583,242.171 C305.583,242.254 305.47,242.367 305.384,242.367 C305.215,242.367 305.047,242.367 304.764,242.424 C304.093,242.563 303.949,242.9 303.894,243.746 C303.865,244.504 303.865,245.179 303.865,248.892 L303.865,254.633" id="Fill-60" fill="#636462"></path>
                <path d="M318.041,248.892 C318.041,245.179 318.041,244.504 317.983,243.746 C317.928,242.986 317.789,242.536 316.974,242.424 C316.773,242.394 316.352,242.367 316.127,242.367 C316.043,242.367 315.929,242.254 315.929,242.171 C315.929,242.028 316.043,241.974 316.323,241.974 C317.448,241.974 318.943,242.028 319.166,242.028 C319.394,242.028 320.94,241.974 321.67,241.974 C321.951,241.974 322.091,242.028 322.091,242.171 C322.091,242.254 321.98,242.367 321.867,242.367 C321.698,242.367 321.558,242.367 321.247,242.424 C320.602,242.536 320.46,242.959 320.404,243.746 C320.345,244.504 320.345,245.179 320.345,248.892 L320.345,252.242 C320.345,255.701 321.105,257.136 322.175,258.092 C323.386,259.193 324.455,259.387 325.863,259.387 C327.38,259.387 328.845,258.712 329.688,257.699 C330.843,256.322 331.095,254.352 331.095,251.904 L331.095,248.892 C331.095,245.179 331.067,244.504 331.039,243.746 C331.007,242.986 330.87,242.536 330.053,242.424 C329.857,242.394 329.431,242.367 329.21,242.367 C329.097,242.367 329.013,242.254 329.013,242.171 C329.013,242.028 329.127,241.974 329.407,241.974 C330.503,241.974 331.939,242.028 332.079,242.028 C332.249,242.028 333.428,241.974 334.161,241.974 C334.442,241.974 334.554,242.028 334.554,242.171 C334.554,242.254 334.471,242.367 334.359,242.367 C334.189,242.367 334.049,242.367 333.738,242.424 C333.064,242.563 332.922,242.959 332.867,243.746 C332.81,244.504 332.84,245.179 332.84,248.892 L332.84,251.454 C332.84,254.043 332.501,256.941 330.533,258.63 C328.731,260.176 326.818,260.37 325.354,260.37 C324.541,260.37 321.951,260.318 320.208,258.684 C318.997,257.561 318.041,255.901 318.041,252.411 L318.041,248.892" id="Fill-61" fill="#636462"></path>
                <path d="M349.321,250.921 C349.321,251.06 349.377,251.146 349.489,251.229 C349.855,251.424 351.122,251.593 352.216,251.593 C352.811,251.593 353.482,251.566 354.073,251.174 C354.917,250.609 355.564,249.343 355.564,247.516 C355.564,244.535 353.933,242.816 351.29,242.816 C350.558,242.816 349.768,242.9 349.516,242.959 C349.404,243.014 349.321,243.097 349.321,243.239 L349.321,250.921 L349.321,250.921 Z M347.183,248.892 C347.183,245.179 347.183,244.504 347.126,243.746 C347.067,242.928 346.93,242.536 346.112,242.424 C345.915,242.394 345.493,242.367 345.268,242.367 C345.186,242.367 345.071,242.254 345.071,242.171 C345.071,242.028 345.186,241.974 345.466,241.974 C346.591,241.974 348.25,242.028 348.391,242.028 C348.645,242.028 350.726,241.974 351.487,241.974 C353.06,241.974 354.807,242.114 356.101,243.014 C356.721,243.465 357.815,244.62 357.815,246.279 C357.815,248.052 357.086,249.765 354.778,251.735 C356.804,254.268 358.522,256.434 359.955,257.924 C361.277,259.276 362.091,259.501 362.712,259.585 C363.191,259.671 363.443,259.671 363.583,259.671 C363.724,259.671 363.809,259.783 363.809,259.867 C363.809,260.008 363.668,260.064 363.219,260.064 L361.67,260.064 C360.264,260.064 359.646,259.921 359.025,259.585 C357.959,259.022 357.056,257.872 355.65,256.07 C354.609,254.775 353.512,253.227 352.978,252.58 C352.862,252.466 352.811,252.441 352.638,252.441 L349.489,252.382 C349.377,252.382 349.321,252.441 349.321,252.58 L349.321,253.144 C349.321,255.449 349.321,257.307 349.432,258.291 C349.516,258.995 349.659,259.444 350.417,259.557 C350.755,259.614 351.29,259.671 351.514,259.671 C351.683,259.671 351.711,259.783 351.711,259.867 C351.711,259.979 351.6,260.064 351.316,260.064 C349.967,260.064 348.391,259.979 348.28,259.979 C348.25,259.979 346.591,260.064 345.83,260.064 C345.579,260.064 345.437,260.008 345.437,259.867 C345.437,259.783 345.493,259.671 345.634,259.671 C345.86,259.671 346.169,259.614 346.393,259.557 C346.872,259.444 346.93,258.995 347.041,258.291 C347.183,257.307 347.183,255.424 347.183,253.115 L347.183,248.892 L347.183,248.892 Z" id="Fill-62" fill="#636462"></path>
                <path d="M375.703,253.843 C375.703,252.552 375.534,252.074 375.172,251.398 C374.971,251.032 371.624,245.715 370.783,244.451 C370.19,243.548 369.597,243.014 369.146,242.705 C368.785,242.48 368.305,242.367 368.106,242.367 C367.967,242.367 367.854,242.254 367.854,242.142 C367.854,242.028 367.94,241.974 368.165,241.974 C368.642,241.974 370.499,242.028 370.61,242.028 C370.783,242.028 371.792,241.974 372.752,241.974 C373.032,241.974 373.086,242.028 373.086,242.142 C373.086,242.224 372.919,242.312 372.694,242.394 C372.496,242.48 372.384,242.591 372.384,242.787 C372.384,243.127 372.553,243.409 372.722,243.716 L377.223,251.174 C377.729,250.162 380.821,245.042 381.273,244.252 C381.583,243.716 381.698,243.324 381.698,243.014 C381.698,242.675 381.583,242.48 381.303,242.394 C381.077,242.34 380.936,242.224 380.936,242.114 C380.936,242.028 381.077,241.974 381.331,241.974 C381.976,241.974 382.849,242.028 383.047,242.028 C383.216,242.028 384.987,241.974 385.466,241.974 C385.637,241.974 385.776,242.028 385.776,242.114 C385.776,242.224 385.663,242.367 385.466,242.367 C385.186,242.367 384.707,242.452 384.312,242.675 C383.833,242.959 383.609,243.212 383.076,243.858 C382.261,244.813 378.77,250.443 378.264,251.454 C377.843,252.299 377.954,253.057 377.954,253.843 L377.954,255.901 C377.954,256.293 377.954,257.307 378.041,258.291 C378.095,258.995 378.264,259.444 378.996,259.557 C379.332,259.614 379.897,259.671 380.122,259.671 C380.262,259.671 380.318,259.783 380.318,259.867 C380.318,259.979 380.176,260.064 379.926,260.064 C378.545,260.064 376.942,259.979 376.803,259.979 C376.689,259.979 375.114,260.064 374.383,260.064 C374.099,260.064 373.987,260.008 373.987,259.867 C373.987,259.783 374.044,259.671 374.186,259.671 C374.411,259.671 374.692,259.614 374.916,259.557 C375.42,259.444 375.592,258.995 375.646,258.291 C375.703,257.307 375.703,256.293 375.703,255.901 L375.703,253.843" id="Fill-63" fill="#636462"></path>
                <path d="M415.873,251.963 C415.873,256.094 415.987,257.896 416.489,258.403 C416.941,258.854 417.674,259.05 419.866,259.05 C421.357,259.05 422.596,259.022 423.272,258.209 C423.634,257.757 423.919,257.053 424.004,256.519 C424.032,256.293 424.085,256.152 424.256,256.152 C424.396,256.152 424.423,256.263 424.423,256.574 C424.423,256.884 424.229,258.572 424.004,259.387 C423.803,260.035 423.721,260.148 422.231,260.148 C420.206,260.148 418.742,260.092 417.557,260.064 C416.377,260.008 415.504,259.979 414.688,259.979 C414.576,259.979 414.099,260.008 413.537,260.008 C412.974,260.035 412.354,260.064 411.931,260.064 C411.622,260.064 411.483,260.008 411.483,259.84 C411.483,259.755 411.54,259.671 411.709,259.671 C411.961,259.671 412.298,259.614 412.552,259.557 C413.116,259.444 413.256,258.826 413.367,258.009 C413.508,256.828 413.508,254.605 413.508,251.904 L413.508,246.954 C413.508,242.563 413.508,241.775 413.454,240.876 C413.396,239.919 413.172,239.467 412.243,239.272 C412.016,239.217 411.54,239.188 411.287,239.188 C411.171,239.188 411.061,239.13 411.061,239.019 C411.061,238.85 411.201,238.795 411.51,238.795 C412.777,238.795 414.547,238.879 414.688,238.879 C414.832,238.879 416.884,238.795 417.727,238.795 C418.035,238.795 418.178,238.85 418.178,239.019 C418.178,239.13 418.067,239.188 417.954,239.188 C417.756,239.188 417.363,239.217 417.026,239.272 C416.21,239.412 415.987,239.891 415.925,240.876 C415.873,241.775 415.873,242.563 415.873,246.954 L415.873,251.963" id="Fill-64" fill="#636462"></path>
                <path d="M443.633,252.411 C443.747,252.411 443.747,252.354 443.717,252.242 L441.27,245.686 C441.129,245.322 440.988,245.322 440.848,245.686 L438.542,252.242 C438.514,252.354 438.542,252.411 438.626,252.411 L443.633,252.411 L443.633,252.411 Z M440.877,242.452 C441.186,241.665 441.299,241.522 441.465,241.522 C441.719,241.522 441.807,241.861 442.059,242.394 C442.508,243.409 446.475,253.285 447.993,256.911 C448.892,259.05 449.571,259.361 450.105,259.529 C450.47,259.642 450.836,259.671 451.091,259.671 C451.229,259.671 451.401,259.724 451.401,259.867 C451.401,260.008 451.117,260.064 450.836,260.064 C450.47,260.064 448.641,260.064 446.925,260.008 C446.448,259.979 446.051,259.979 446.051,259.84 C446.051,259.724 446.112,259.724 446.219,259.671 C446.363,259.614 446.616,259.418 446.448,259.022 L444.226,253.536 C444.167,253.424 444.139,253.396 443.999,253.396 L438.286,253.396 C438.175,253.396 438.092,253.453 438.036,253.591 L436.627,257.419 C436.403,258.009 436.262,258.6 436.262,259.022 C436.262,259.501 436.685,259.671 437.106,259.671 L437.331,259.671 C437.531,259.671 437.584,259.755 437.584,259.867 C437.584,260.008 437.447,260.064 437.217,260.064 C436.627,260.064 435.28,259.979 434.995,259.979 C434.747,259.979 433.506,260.064 432.493,260.064 C432.184,260.064 432.016,260.008 432.016,259.867 C432.016,259.755 432.127,259.671 432.239,259.671 C432.407,259.671 432.775,259.642 432.971,259.614 C434.096,259.474 434.577,258.63 435.051,257.419 L440.877,242.452 L440.877,242.452 Z" id="Fill-65" fill="#636462"></path>
                <path d="M476.208,256.519 L476.321,256.519 C476.94,254.548 479.163,247.626 480.034,244.56 C480.29,243.66 480.315,243.379 480.315,243.072 C480.315,242.649 480.122,242.367 478.995,242.367 C478.853,242.367 478.77,242.224 478.77,242.142 C478.77,242.028 478.883,241.974 479.191,241.974 C480.458,241.974 481.499,242.028 481.725,242.028 C481.891,242.028 482.961,241.974 483.719,241.974 C483.947,241.974 484.061,242.028 484.061,242.114 C484.061,242.224 484.001,242.367 483.835,242.367 C483.749,242.367 483.271,242.394 482.99,242.48 C482.259,242.734 481.866,243.688 481.386,245.012 C480.29,248.052 477.841,255.647 476.857,258.319 C476.208,260.092 476.068,260.37 475.79,260.37 C475.536,260.37 475.31,260.064 474.971,259.133 L470.13,246.052 C469.287,248.133 465.941,256.884 465.04,259.107 C464.619,260.119 464.449,260.37 464.169,260.37 C463.914,260.37 463.717,260.119 463.21,258.488 L458.82,244.306 C458.429,243.041 458.174,242.734 457.527,242.504 C457.193,242.394 456.571,242.367 456.404,242.367 C456.29,242.367 456.175,242.283 456.175,242.142 C456.175,242.028 456.348,241.974 456.571,241.974 C457.864,241.974 459.243,242.028 459.497,242.028 C459.721,242.028 460.847,241.974 462.085,241.974 C462.42,241.974 462.538,242.028 462.538,242.142 C462.538,242.283 462.395,242.367 462.284,242.367 C462.085,242.367 461.693,242.367 461.412,242.504 C461.244,242.563 461.073,242.705 461.073,243.014 C461.073,243.324 461.271,244.167 461.551,245.237 C461.946,246.757 464.476,255.534 464.787,256.519 L464.839,256.519 L470.019,243.156 C470.383,242.2 470.552,242.056 470.694,242.056 C470.863,242.056 471.06,242.367 471.372,243.184 L476.208,256.519" id="Fill-66" fill="#636462"></path>
                <path d="M498.427,253.843 C498.427,252.552 498.259,252.074 497.894,251.398 C497.696,251.032 494.349,245.715 493.504,244.451 C492.912,243.548 492.321,243.014 491.873,242.705 C491.507,242.48 491.028,242.367 490.831,242.367 C490.689,242.367 490.578,242.254 490.578,242.142 C490.578,242.028 490.661,241.974 490.885,241.974 C491.364,241.974 493.223,242.028 493.336,242.028 C493.504,242.028 494.516,241.974 495.471,241.974 C495.752,241.974 495.81,242.028 495.81,242.142 C495.81,242.224 495.639,242.312 495.417,242.394 C495.218,242.48 495.109,242.591 495.109,242.787 C495.109,243.127 495.276,243.409 495.443,243.716 L499.946,251.174 C500.451,250.162 503.549,245.042 503.998,244.252 C504.309,243.716 504.419,243.324 504.419,243.014 C504.419,242.675 504.309,242.48 504.028,242.394 C503.8,242.34 503.66,242.224 503.66,242.114 C503.66,242.028 503.8,241.974 504.053,241.974 C504.698,241.974 505.573,242.028 505.771,242.028 C505.939,242.028 507.712,241.974 508.191,241.974 C508.359,241.974 508.499,242.028 508.499,242.114 C508.499,242.224 508.386,242.367 508.191,242.367 C507.907,242.367 507.429,242.452 507.036,242.675 C506.557,242.959 506.333,243.212 505.797,243.858 C504.984,244.813 501.494,250.443 500.988,251.454 C500.565,252.299 500.679,253.057 500.679,253.843 L500.679,255.901 C500.679,256.293 500.679,257.307 500.762,258.291 C500.82,258.995 500.988,259.444 501.716,259.557 C502.058,259.614 502.619,259.671 502.843,259.671 C502.986,259.671 503.041,259.783 503.041,259.867 C503.041,259.979 502.901,260.064 502.648,260.064 C501.27,260.064 499.665,259.979 499.523,259.979 C499.41,259.979 497.836,260.064 497.105,260.064 C496.823,260.064 496.711,260.008 496.711,259.867 C496.711,259.783 496.769,259.671 496.907,259.671 C497.135,259.671 497.416,259.614 497.638,259.557 C498.148,259.444 498.315,258.995 498.372,258.291 C498.427,257.307 498.427,256.293 498.427,255.901 L498.427,253.843" id="Fill-67" fill="#636462"></path>
                <path d="M519.129,248.892 C519.129,245.179 519.129,244.504 519.072,243.746 C519.016,242.928 518.876,242.536 518.057,242.424 C517.862,242.394 517.439,242.367 517.215,242.367 C517.131,242.367 517.018,242.254 517.018,242.171 C517.018,242.028 517.131,241.974 517.414,241.974 C518.537,241.974 520.14,242.028 520.281,242.028 C520.453,242.028 525.626,242.056 526.189,242.028 C526.669,242.001 527.121,241.917 527.314,241.886 C527.43,241.861 527.542,241.775 527.654,241.775 C527.737,241.775 527.765,241.886 527.765,242.001 C527.765,242.171 527.625,242.452 527.568,243.127 C527.542,243.35 527.483,244.421 527.43,244.703 C527.399,244.813 527.314,244.956 527.202,244.956 C527.062,244.956 527.007,244.842 527.007,244.644 C527.007,244.477 526.979,244.084 526.864,243.801 C526.694,243.409 526.444,243.239 525.091,243.072 C524.67,243.014 521.801,242.986 521.516,242.986 C521.408,242.986 521.379,243.072 521.379,243.239 L521.379,249.738 C521.379,249.906 521.379,249.992 521.516,249.992 C521.831,249.992 525.091,249.992 525.656,249.933 C526.246,249.877 526.611,249.851 526.864,249.599 C527.034,249.428 527.146,249.289 527.232,249.289 C527.314,249.289 527.373,249.343 527.373,249.486 C527.373,249.629 527.232,250.019 527.174,250.808 C527.121,251.287 527.062,252.185 527.062,252.354 C527.062,252.552 527.007,252.806 526.835,252.806 C526.723,252.806 526.669,252.719 526.669,252.58 C526.669,252.354 526.669,252.103 526.555,251.794 C526.47,251.454 526.246,251.174 525.289,251.06 C524.613,250.976 521.968,250.947 521.547,250.947 C521.408,250.947 521.379,251.032 521.379,251.118 L521.379,253.115 C521.379,253.929 521.35,256.715 521.379,257.195 C521.434,258.796 521.885,259.107 524.333,259.107 C524.981,259.107 526.165,259.107 526.81,258.854 C527.456,258.572 527.794,258.15 527.933,257.195 C527.99,256.911 528.045,256.828 528.188,256.828 C528.327,256.828 528.356,257.025 528.356,257.195 C528.356,257.363 528.158,258.995 528.017,259.501 C527.852,260.119 527.597,260.119 526.64,260.119 C524.782,260.119 523.346,260.064 522.335,260.035 C521.293,259.979 520.646,259.979 520.281,259.979 C520.224,259.979 519.745,259.979 519.212,260.008 C518.737,260.035 518.172,260.064 517.778,260.064 C517.524,260.064 517.382,260.008 517.382,259.867 C517.382,259.783 517.439,259.671 517.581,259.671 C517.804,259.671 518.114,259.585 518.34,259.557 C518.819,259.474 518.876,258.995 518.989,258.291 C519.129,257.307 519.129,255.424 519.129,253.115 L519.129,248.892" id="Fill-68" fill="#636462"></path>
                <path d="M544.052,250.921 C544.052,251.06 544.106,251.146 544.217,251.229 C544.583,251.424 545.851,251.593 546.948,251.593 C547.54,251.593 548.213,251.566 548.803,251.174 C549.649,250.609 550.298,249.343 550.298,247.516 C550.298,244.535 548.665,242.816 546.021,242.816 C545.29,242.816 544.5,242.9 544.248,242.959 C544.135,243.014 544.052,243.097 544.052,243.239 L544.052,250.921 L544.052,250.921 Z M541.914,248.892 C541.914,245.179 541.914,244.504 541.854,243.746 C541.797,242.928 541.658,242.536 540.842,242.424 C540.644,242.394 540.224,242.367 540,242.367 C539.916,242.367 539.802,242.254 539.802,242.171 C539.802,242.028 539.916,241.974 540.196,241.974 C541.321,241.974 542.981,242.028 543.124,242.028 C543.374,242.028 545.46,241.974 546.215,241.974 C547.792,241.974 549.537,242.114 550.833,243.014 C551.45,243.465 552.545,244.62 552.545,246.279 C552.545,248.052 551.816,249.765 549.51,251.735 C551.534,254.268 553.251,256.434 554.684,257.924 C556.008,259.276 556.825,259.501 557.44,259.585 C557.922,259.671 558.174,259.671 558.315,259.671 C558.456,259.671 558.542,259.783 558.542,259.867 C558.542,260.008 558.398,260.064 557.948,260.064 L556.399,260.064 C554.994,260.064 554.376,259.921 553.756,259.585 C552.688,259.022 551.789,257.872 550.38,256.07 C549.338,254.775 548.243,253.227 547.706,252.58 C547.594,252.466 547.54,252.441 547.37,252.441 L544.217,252.382 C544.106,252.382 544.052,252.441 544.052,252.58 L544.052,253.144 C544.052,255.449 544.052,257.307 544.163,258.291 C544.248,258.995 544.385,259.444 545.147,259.557 C545.483,259.614 546.021,259.671 546.245,259.671 C546.415,259.671 546.44,259.783 546.44,259.867 C546.44,259.979 546.33,260.064 546.047,260.064 C544.699,260.064 543.124,259.979 543.008,259.979 C542.981,259.979 541.321,260.064 540.561,260.064 C540.307,260.064 540.167,260.008 540.167,259.867 C540.167,259.783 540.224,259.671 540.367,259.671 C540.591,259.671 540.897,259.614 541.126,259.557 C541.604,259.444 541.658,258.995 541.771,258.291 C541.914,257.307 541.914,255.424 541.914,253.115 L541.914,248.892 L541.914,248.892 Z" id="Fill-69" fill="#636462"></path>
                <path d="M565.763,259.724 C565.427,259.557 565.397,259.474 565.397,258.826 C565.397,257.644 565.51,256.688 565.539,256.293 C565.539,256.041 565.597,255.901 565.733,255.901 C565.876,255.901 565.961,255.983 565.961,256.181 C565.961,256.379 565.961,256.715 566.044,257.053 C566.44,258.796 568.295,259.418 569.958,259.418 C572.405,259.418 573.672,258.038 573.672,256.238 C573.672,254.521 572.74,253.703 570.549,252.074 L569.422,251.229 C566.75,249.232 565.876,247.767 565.876,246.109 C565.876,243.296 568.098,241.609 571.365,241.609 C572.349,241.609 573.333,241.748 573.922,241.886 C574.403,242.001 574.598,242.001 574.796,242.001 C574.996,242.001 575.049,242.028 575.049,242.171 C575.049,242.283 574.938,243.072 574.938,244.703 C574.938,245.07 574.908,245.237 574.738,245.237 C574.573,245.237 574.544,245.124 574.515,244.925 C574.485,244.644 574.291,243.997 574.149,243.746 C573.979,243.465 573.163,242.563 570.941,242.563 C569.141,242.563 567.65,243.465 567.65,245.152 C567.65,246.671 568.408,247.543 570.855,249.206 L571.561,249.683 C574.573,251.735 575.61,253.396 575.61,255.449 C575.61,256.856 575.077,258.376 573.304,259.529 C572.264,260.205 570.715,260.37 569.367,260.37 C568.211,260.37 566.776,260.205 565.763,259.724" id="Fill-70" fill="#636462"></path>
                <path d="M71.256,185.26 C71.454,185.26 71.454,185.162 71.404,184.963 L67.108,173.456 C66.862,172.819 66.615,172.819 66.368,173.456 L62.319,184.963 C62.268,185.162 62.319,185.26 62.466,185.26 L71.256,185.26 L71.256,185.26 Z M66.417,167.779 C66.961,166.396 67.158,166.148 67.454,166.148 C67.898,166.148 68.047,166.743 68.49,167.68 C69.281,169.457 76.243,186.791 78.91,193.163 C80.489,196.915 81.675,197.457 82.613,197.751 C83.255,197.951 83.898,198.002 84.341,198.002 C84.589,198.002 84.886,198.099 84.886,198.343 C84.886,198.592 84.39,198.692 83.898,198.692 C83.255,198.692 80.046,198.692 77.033,198.592 C76.195,198.544 75.503,198.544 75.503,198.296 C75.503,198.099 75.602,198.099 75.799,198.002 C76.046,197.9 76.49,197.556 76.195,196.863 L72.292,187.235 C72.193,187.038 72.145,186.988 71.899,186.988 L61.876,186.988 C61.677,186.988 61.529,187.088 61.43,187.335 L58.96,194.05 C58.565,195.088 58.319,196.123 58.319,196.863 C58.319,197.706 59.06,198.002 59.8,198.002 L60.194,198.002 C60.541,198.002 60.639,198.148 60.639,198.343 C60.639,198.592 60.394,198.692 59.999,198.692 C58.96,198.692 56.591,198.544 56.097,198.544 C55.652,198.544 53.479,198.692 51.703,198.692 C51.159,198.692 50.863,198.592 50.863,198.343 C50.863,198.148 51.061,198.002 51.256,198.002 C51.553,198.002 52.196,197.951 52.542,197.9 C54.517,197.654 55.356,196.174 56.196,194.05 L66.417,167.779 L66.417,167.779 Z" id="Fill-71" fill="#454645"></path>
                <path d="M102.218,198.099 C101.627,197.802 101.578,197.654 101.578,196.519 C101.578,194.444 101.774,192.765 101.825,192.075 C101.825,191.632 101.922,191.383 102.169,191.383 C102.418,191.383 102.565,191.532 102.565,191.877 C102.565,192.222 102.565,192.814 102.714,193.409 C103.405,196.468 106.664,197.556 109.577,197.556 C113.873,197.556 116.094,195.135 116.094,191.976 C116.094,188.963 114.465,187.529 110.614,184.668 L108.639,183.186 C103.948,179.679 102.418,177.112 102.418,174.198 C102.418,169.259 106.318,166.296 112.045,166.296 C113.773,166.296 115.503,166.545 116.54,166.792 C117.379,166.99 117.723,166.99 118.07,166.99 C118.417,166.99 118.515,167.04 118.515,167.288 C118.515,167.484 118.317,168.865 118.317,171.731 C118.317,172.37 118.267,172.669 117.972,172.669 C117.676,172.669 117.625,172.468 117.578,172.126 C117.526,171.632 117.181,170.493 116.935,170.051 C116.638,169.556 115.206,167.976 111.305,167.976 C108.145,167.976 105.528,169.556 105.528,172.518 C105.528,175.185 106.861,176.718 111.157,179.63 L112.393,180.471 C117.676,184.075 119.502,186.988 119.502,190.592 C119.502,193.063 118.564,195.729 115.453,197.751 C113.626,198.938 110.91,199.234 108.541,199.234 C106.515,199.234 103.997,198.938 102.218,198.099" id="Fill-72" fill="#454645"></path>
                <path d="M142.91,198.099 C142.318,197.802 142.268,197.654 142.268,196.519 C142.268,194.444 142.465,192.765 142.515,192.075 C142.515,191.632 142.613,191.383 142.861,191.383 C143.109,191.383 143.255,191.532 143.255,191.877 C143.255,192.222 143.255,192.814 143.403,193.409 C144.094,196.468 147.355,197.556 150.268,197.556 C154.563,197.556 156.786,195.135 156.786,191.976 C156.786,188.963 155.155,187.529 151.304,184.668 L149.33,183.186 C144.638,179.679 143.109,177.112 143.109,174.198 C143.109,169.259 147.009,166.296 152.735,166.296 C154.464,166.296 156.193,166.545 157.23,166.792 C158.07,166.99 158.415,166.99 158.761,166.99 C159.106,166.99 159.206,167.04 159.206,167.288 C159.206,167.484 159.009,168.865 159.009,171.731 C159.009,172.37 158.958,172.669 158.662,172.669 C158.366,172.669 158.315,172.468 158.267,172.126 C158.217,171.632 157.874,170.493 157.624,170.051 C157.33,169.556 155.897,167.976 151.996,167.976 C148.835,167.976 146.218,169.556 146.218,172.518 C146.218,175.185 147.551,176.718 151.846,179.63 L153.083,180.471 C158.366,184.075 160.194,186.988 160.194,190.592 C160.194,193.063 159.254,195.729 156.145,197.751 C154.317,198.938 151.601,199.234 149.231,199.234 C147.206,199.234 144.687,198.938 142.91,198.099" id="Fill-73" fill="#454645"></path>
                <path d="M200.538,197.505 C204.439,197.505 212.29,195.43 212.29,183.285 C212.29,173.212 206.167,167.926 199.303,167.926 C192.044,167.926 186.811,172.468 186.811,181.606 C186.811,191.383 192.686,197.505 200.538,197.505 L200.538,197.505 Z M199.551,166.345 C209.327,166.345 216.734,172.322 216.734,182.097 C216.734,191.482 209.772,199.234 199.303,199.234 C187.403,199.234 182.318,190.298 182.318,182.743 C182.318,175.978 187.55,166.345 199.551,166.345 L199.551,166.345 Z" id="Fill-74" fill="#454645"></path>
                <path d="M242.267,194.741 C238.02,191.088 236.985,186.296 236.985,182.299 C236.985,179.482 238.02,174.595 241.874,170.841 C244.49,168.321 248.441,166.345 255.106,166.345 C256.835,166.345 259.302,166.494 261.426,166.84 C263.055,167.136 264.439,167.436 265.872,167.484 C266.314,167.484 266.414,167.68 266.414,167.926 C266.414,168.275 266.314,168.767 266.215,170.296 C266.167,171.681 266.167,174.002 266.118,174.595 C266.069,175.238 265.872,175.482 265.623,175.482 C265.327,175.482 265.278,175.185 265.278,174.595 C265.278,172.965 264.586,171.287 263.45,170.396 C261.92,169.112 258.761,168.075 254.908,168.075 C249.328,168.075 246.663,169.556 245.13,170.99 C241.921,173.952 241.23,177.705 241.23,181.951 C241.23,189.999 247.6,197.161 256.882,197.161 C260.141,197.161 262.314,196.915 264.043,195.185 C264.982,194.246 265.575,192.469 265.722,191.681 C265.823,191.236 265.872,191.088 266.167,191.088 C266.366,191.088 266.563,191.383 266.563,191.681 C266.563,191.976 265.97,195.63 265.524,197.063 C265.278,197.852 265.179,198.002 264.439,198.296 C262.662,198.988 259.402,199.234 256.587,199.234 C250.068,199.234 245.674,197.706 242.267,194.741" id="Fill-75" fill="#454645"></path>
                <path d="M295.599,186.495 C295.599,190.545 295.599,193.853 295.797,195.582 C295.947,196.815 296.094,197.605 297.379,197.802 C298.019,197.9 298.958,198.002 299.354,198.002 C299.598,198.002 299.698,198.196 299.698,198.343 C299.698,198.544 299.502,198.692 299.007,198.692 C296.587,198.692 293.773,198.544 293.575,198.544 C293.329,198.544 290.613,198.692 289.279,198.692 C288.833,198.692 288.587,198.592 288.587,198.343 C288.587,198.196 288.686,198.002 288.933,198.002 C289.33,198.002 289.873,197.9 290.267,197.802 C291.106,197.605 291.254,196.815 291.403,195.582 C291.601,193.853 291.649,190.545 291.649,186.495 L291.649,179.088 C291.649,172.569 291.649,171.385 291.55,170.051 C291.452,168.62 291.106,167.976 290.169,167.779 C289.675,167.68 289.129,167.63 288.833,167.63 C288.638,167.63 288.489,167.436 288.489,167.288 C288.489,167.04 288.686,166.942 289.181,166.942 C290.613,166.942 293.329,167.04 293.575,167.04 C293.773,167.04 296.587,166.942 297.922,166.942 C298.416,166.942 298.614,167.04 298.614,167.288 C298.614,167.436 298.416,167.63 298.266,167.63 C297.971,167.63 297.675,167.63 297.179,167.728 C295.995,167.976 295.748,168.57 295.649,170.051 C295.599,171.385 295.599,172.569 295.599,179.088 L295.599,186.495" id="Fill-76" fill="#454645"></path>
                <path d="M337.131,185.26 C337.328,185.26 337.328,185.162 337.276,184.963 L332.98,173.456 C332.736,172.819 332.489,172.819 332.241,173.456 L328.193,184.963 C328.143,185.162 328.193,185.26 328.34,185.26 L337.131,185.26 L337.131,185.26 Z M332.292,167.779 C332.835,166.396 333.032,166.148 333.33,166.148 C333.773,166.148 333.92,166.743 334.366,167.68 C335.155,169.457 342.118,186.791 344.786,193.163 C346.364,196.915 347.55,197.457 348.489,197.751 C349.129,197.951 349.77,198.002 350.214,198.002 C350.46,198.002 350.76,198.099 350.76,198.343 C350.76,198.592 350.265,198.692 349.77,198.692 C349.129,198.692 345.918,198.692 342.911,198.592 C342.07,198.544 341.377,198.544 341.377,198.296 C341.377,198.099 341.476,198.099 341.674,198.002 C341.919,197.9 342.365,197.556 342.07,196.863 L338.167,187.235 C338.066,187.038 338.017,186.988 337.769,186.988 L327.747,186.988 C327.551,186.988 327.404,187.088 327.303,187.335 L324.832,194.05 C324.438,195.088 324.193,196.123 324.193,196.863 C324.193,197.706 324.934,198.002 325.674,198.002 L326.069,198.002 C326.416,198.002 326.513,198.148 326.513,198.343 C326.513,198.592 326.264,198.692 325.87,198.692 C324.832,198.692 322.464,198.544 321.97,198.544 C321.527,198.544 319.353,198.692 317.576,198.692 C317.031,198.692 316.735,198.592 316.735,198.343 C316.735,198.148 316.934,198.002 317.131,198.002 C317.427,198.002 318.07,197.951 318.415,197.9 C320.39,197.654 321.227,196.174 322.069,194.05 L332.292,167.779 L332.292,167.779 Z" id="Fill-77" fill="#454645"></path>
                <path d="M377.625,186.495 C377.625,190.545 377.625,193.853 377.821,195.582 C377.969,196.815 378.165,197.605 379.502,197.802 C380.091,197.9 381.082,198.002 381.475,198.002 C381.773,198.002 381.82,198.196 381.82,198.343 C381.82,198.544 381.621,198.692 381.127,198.692 C378.758,198.692 375.993,198.544 375.747,198.544 C375.55,198.544 372.538,198.692 371.254,198.692 C370.76,198.692 370.563,198.592 370.563,198.343 C370.563,198.196 370.662,198.05 370.907,198.05 C371.303,198.05 371.794,197.951 372.189,197.852 C373.079,197.654 373.327,196.815 373.475,195.582 C373.674,193.853 373.674,190.545 373.674,186.495 L373.674,168.865 L367.4,168.966 C364.687,169.016 363.647,169.31 363.008,170.296 C362.515,171.037 362.465,171.336 362.317,171.632 C362.218,171.975 362.068,172.025 361.871,172.025 C361.774,172.025 361.574,171.925 361.574,171.681 C361.574,171.236 362.465,167.484 362.515,167.136 C362.613,166.89 362.81,166.345 362.959,166.345 C363.253,166.345 363.696,166.692 364.884,166.84 C366.115,166.99 367.798,167.04 368.294,167.04 L384.685,167.04 C386.115,167.04 387.102,166.942 387.794,166.84 C388.439,166.743 388.835,166.645 389.03,166.645 C389.228,166.645 389.228,166.89 389.228,167.136 C389.228,168.421 389.077,171.432 389.077,171.925 C389.077,172.274 388.882,172.468 388.685,172.468 C388.487,172.468 388.388,172.322 388.34,171.731 L388.29,171.287 C388.143,170.002 387.203,169.064 383.056,168.966 L377.625,168.865 L377.625,186.495" id="Fill-78" fill="#454645"></path>
                <path d="M413.078,179.088 C413.078,172.569 413.078,171.385 412.981,170.051 C412.88,168.62 412.635,167.926 411.203,167.728 C410.858,167.68 410.116,167.63 409.72,167.63 C409.574,167.63 409.376,167.436 409.376,167.288 C409.376,167.04 409.574,166.942 410.068,166.942 C412.042,166.942 414.855,167.04 415.103,167.04 C415.4,167.04 424.486,167.09 425.473,167.04 C426.312,166.99 427.103,166.84 427.448,166.792 C427.647,166.743 427.846,166.593 428.043,166.593 C428.189,166.593 428.241,166.792 428.241,166.99 C428.241,167.288 427.994,167.779 427.891,168.966 C427.846,169.358 427.745,171.236 427.647,171.731 C427.597,171.925 427.448,172.174 427.252,172.174 C427.005,172.174 426.905,171.975 426.905,171.632 C426.905,171.336 426.854,170.642 426.659,170.15 C426.361,169.457 425.919,169.163 423.547,168.865 C422.806,168.767 417.768,168.718 417.278,168.718 C417.081,168.718 417.034,168.865 417.034,169.163 L417.034,180.568 C417.034,180.865 417.034,181.015 417.278,181.015 C417.821,181.015 423.547,181.015 424.536,180.914 C425.575,180.815 426.217,180.767 426.659,180.322 C426.957,180.027 427.154,179.777 427.299,179.777 C427.448,179.777 427.549,179.879 427.549,180.125 C427.549,180.371 427.299,181.062 427.202,182.447 C427.103,183.285 427.005,184.865 427.005,185.162 C427.005,185.508 426.905,185.953 426.608,185.953 C426.411,185.953 426.312,185.803 426.312,185.555 C426.312,185.162 426.312,184.718 426.117,184.173 C425.97,183.58 425.575,183.088 423.892,182.889 C422.709,182.743 418.065,182.692 417.328,182.692 C417.081,182.692 417.034,182.841 417.034,182.99 L417.034,186.495 C417.034,187.927 416.982,192.814 417.034,193.654 C417.13,196.468 417.919,197.011 422.215,197.011 C423.354,197.011 425.425,197.011 426.561,196.567 C427.697,196.074 428.289,195.332 428.538,193.654 C428.637,193.163 428.735,193.012 428.981,193.012 C429.225,193.012 429.274,193.357 429.274,193.654 C429.274,193.951 428.932,196.815 428.684,197.706 C428.386,198.791 427.942,198.791 426.263,198.791 C423.004,198.791 420.489,198.692 418.71,198.642 C416.883,198.544 415.747,198.544 415.103,198.544 C415.005,198.544 414.167,198.544 413.229,198.592 C412.387,198.642 411.402,198.692 410.709,198.692 C410.262,198.692 410.017,198.592 410.017,198.343 C410.017,198.196 410.116,198.002 410.366,198.002 C410.759,198.002 411.3,197.852 411.698,197.802 C412.536,197.654 412.635,196.815 412.833,195.582 C413.078,193.853 413.078,190.545 413.078,186.495 L413.078,179.088" id="Fill-79" fill="#454645"></path>
                <path d="M451.403,198.099 C450.807,197.802 450.759,197.654 450.759,196.519 C450.759,194.444 450.956,192.765 451.003,192.075 C451.003,191.632 451.107,191.383 451.352,191.383 C451.596,191.383 451.751,191.532 451.751,191.877 C451.751,192.222 451.751,192.814 451.898,193.409 C452.586,196.468 455.844,197.556 458.756,197.556 C463.057,197.556 465.278,195.135 465.278,191.976 C465.278,188.963 463.646,187.529 459.797,184.668 L457.819,183.186 C453.127,179.679 451.596,177.112 451.596,174.198 C451.596,169.259 455.499,166.296 461.227,166.296 C462.956,166.296 464.685,166.545 465.721,166.792 C466.559,166.99 466.907,166.99 467.25,166.99 C467.596,166.99 467.698,167.04 467.698,167.288 C467.698,167.484 467.501,168.865 467.501,171.731 C467.501,172.37 467.45,172.669 467.152,172.669 C466.856,172.669 466.806,172.468 466.758,172.126 C466.71,171.632 466.364,170.493 466.12,170.051 C465.819,169.556 464.389,167.976 460.489,167.976 C457.329,167.976 454.71,169.556 454.71,172.518 C454.71,175.185 456.043,176.718 460.342,179.63 L461.572,180.471 C466.856,184.075 468.683,186.988 468.683,190.592 C468.683,193.063 467.745,195.729 464.633,197.751 C462.809,198.938 460.092,199.234 457.723,199.234 C455.695,199.234 453.176,198.938 451.403,198.099" id="Fill-80" fill="#454645"></path>
                <path d="M526.562,179.088 C526.562,172.569 526.562,171.385 526.461,170.051 C526.364,168.62 526.116,167.926 524.684,167.728 C524.337,167.68 523.598,167.63 523.204,167.63 C523.054,167.63 522.856,167.436 522.856,167.288 C522.856,167.04 523.054,166.942 523.549,166.942 C525.521,166.942 528.241,167.04 528.586,167.04 C529.523,167.04 532.78,166.942 534.758,166.942 C540.337,166.942 542.311,168.668 543.053,169.31 C544.04,170.2 545.225,172.074 545.225,174.347 C545.225,180.371 540.683,184.372 534.017,184.372 C533.768,184.372 533.031,184.372 532.78,184.321 C532.583,184.321 532.339,184.123 532.339,183.927 C532.339,183.58 532.583,183.481 533.471,183.481 C538.165,183.481 541.521,180.519 541.521,176.718 C541.521,175.336 541.375,172.618 539.052,170.347 C536.783,168.075 534.164,168.321 533.175,168.321 C532.438,168.321 531.201,168.52 530.758,168.62 C530.508,168.668 530.411,168.966 530.411,169.409 L530.411,186.495 C530.411,190.545 530.411,193.853 530.61,195.582 C530.758,196.815 531.003,197.605 532.339,197.802 C532.929,197.9 533.868,198.002 534.26,198.002 C534.512,198.002 534.61,198.196 534.61,198.343 C534.61,198.544 534.413,198.692 533.919,198.692 C531.549,198.692 528.685,198.544 528.485,198.544 C528.338,198.544 525.521,198.692 524.19,198.692 C523.747,198.692 523.501,198.592 523.501,198.343 C523.501,198.196 523.598,198.002 523.842,198.002 C524.238,198.002 524.782,197.9 525.178,197.802 C526.017,197.605 526.116,196.815 526.313,195.582 C526.562,193.853 526.562,190.545 526.562,186.495 L526.562,179.088" id="Fill-81" fill="#454645"></path>
                <path d="M570.658,194.741 C566.415,191.088 565.374,186.296 565.374,182.299 C565.374,179.482 566.415,174.595 570.264,170.841 C572.881,168.321 576.832,166.345 583.499,166.345 C585.226,166.345 587.697,166.494 589.819,166.84 C591.449,167.136 592.83,167.436 594.264,167.484 C594.708,167.484 594.806,167.68 594.806,167.926 C594.806,168.275 594.708,168.767 594.609,170.296 C594.56,171.681 594.56,174.002 594.51,174.595 C594.464,175.238 594.264,175.482 594.016,175.482 C593.719,175.482 593.672,175.185 593.672,174.595 C593.672,172.965 592.977,171.287 591.843,170.396 C590.311,169.112 587.15,168.075 583.3,168.075 C577.722,168.075 575.056,169.556 573.522,170.99 C570.315,173.952 569.625,177.705 569.625,181.951 C569.625,189.999 575.993,197.161 585.276,197.161 C588.535,197.161 590.706,196.915 592.436,195.185 C593.375,194.246 593.967,192.469 594.115,191.681 C594.211,191.236 594.264,191.088 594.56,191.088 C594.757,191.088 594.958,191.383 594.958,191.681 C594.958,191.976 594.36,195.63 593.917,197.063 C593.672,197.852 593.57,198.002 592.83,198.296 C591.053,198.988 587.795,199.234 584.978,199.234 C578.461,199.234 574.067,197.706 570.658,194.741" id="Fill-82" fill="#454645"></path>
            </g>
        </g>
    </g>
</svg>